<svg width="218" height="84" viewBox="0 0 218 84" version="1.1" xmlns="http://www.w3.org/2000/svg" xmlns:xlink="http://www.w3.org/1999/xlink" overflow="visible" id="t1yrltac">
   <desc>Engraved by Verovio 6.2.0-43f8060</desc>
   <defs>
      <g id="E062-t1yrltac">
         <path transform="scale(1,-1)" d="M582 -120c0 32 26 58 58 58s58 -26 58 -58s-26 -58 -58 -58s-58 26 -58 58zM582 120c0 32 26 58 58 58s58 -26 58 -58s-26 -58 -58 -58s-58 26 -58 58zM158 96c51 0 73 -14 88 -49l16 -39c0 -17 -2 -30 -7 -40c-3 -11 -10 -21 -19 -31c-17 -18 -49 -43 -84 -43 c-55 0 -77 13 -112 44c-24 21 -35 55 -35 100c0 46 14 81 32 112c30 52 71 79 137 93l36 6l26 2c154 0 235 -68 274 -182c11 -32 18 -68 18 -107c0 -103 -26 -182 -68 -250c-89 -145 -234 -230 -412 -288l-30 -5c-9 0 -14 3 -14 8c3 10 5 11 10 16c35 15 70 30 96 44l78 43 c96 57 162 136 197 258c9 33 17 60 22 100c3 22 5 35 6 39c-7 69 -16 115 -23 140s-4 22 -16 40c-8 12 -19 23 -31 34c-24 21 -62 44 -118 44c-48 0 -84 -8 -113 -28c-28 -19 -42 -44 -42 -73v-16c2 -5 3 -9 4 -11c24 22 52 39 84 39z" />
      </g>
      <g id="E084-t1yrltac">
         <path transform="scale(1,-1)" d="M20 -78c84 97 114 180 134 329h170c-13 -32 -82 -132 -99 -151l-84 -97c-33 -36 -59 -63 -80 -81h162v102l127 123v-225h57v-39h-57v-34c0 -43 19 -65 57 -65v-34h-244v36c48 0 60 26 60 70v27h-203v39z" />
      </g>
      <g id="E0A4-t1yrltac">
         <path transform="scale(1,-1)" d="M0 -39c0 68 73 172 200 172c66 0 114 -37 114 -95c0 -84 -106 -171 -218 -171c-64 0 -96 30 -96 94z" />
      </g>
      <g id="E240-t1yrltac">
         <path transform="scale(1,-1)" d="M179 -646c15 29 29 55 46 102c18 49 30 108 30 138c0 105 -80 173 -168 200c-18 5 -47 9 -87 16v190h22c8 0 33 -61 71 -95c4 -3 -2 3 61 -56c62 -58 122 -137 122 -241c0 -38 -13 -106 -35 -163c-20 -51 -43 -99 -66 -132c-6 -5 -10 -7 -13 -7s-5 2 -5 5l4 10 c1 3 14 25 18 33z" />
      </g>
      <g id="E4A3-t1yrltac">
         <path transform="scale(1,-1)" d="M0 -48c0 26 22 48 48 48s48 -22 48 -48s-22 -48 -48 -48s-48 22 -48 48z" />
      </g>
      <g id="E241-t1yrltac">
         <path transform="scale(1,-1)" d="M179 646c-4 8 -17 30 -18 33l-4 10c0 3 2 5 5 5s7 -2 13 -7c23 -33 46 -81 66 -132c22 -57 35 -125 35 -163c0 -104 -60 -183 -122 -241c-63 -59 -57 -53 -61 -56c-38 -34 -63 -95 -71 -95h-22v190c40 7 69 11 87 16c88 27 168 95 168 200c0 30 -12 89 -30 138 c-17 47 -31 73 -46 102z" />
      </g>
      <g id="E4A2-t1yrltac">
         <path transform="scale(1,-1)" d="M0 48c0 26 22 48 48 48s48 -22 48 -48s-22 -48 -48 -48s-48 22 -48 48z" />
      </g>
   </defs>
   <style type="text/css">#t1yrltac g.ending, #t1yrltac g.fing, #t1yrltac g.reh, #t1yrltac g.tempo {font-weight:bold;}#t1yrltac g.dir, #t1yrltac g.dynam, #t1yrltac g.mNum {font-style:italic;}#t1yrltac g.label {font-weight:normal;}#t1yrltac ellipse, #t1yrltac path, #t1yrltac polygon, #t1yrltac polyline, #t1yrltac rect {stroke:currentColor}</style>
   <svg class="definition-scale" color="black" font-family="Times, serif" viewBox="0 0 5170 2000">
      <g class="page-margin" transform="translate(100, 100)">
         <g id="d1gpsndr" class="mdiv pageMilestone" />
         <g id="e16zka0n" class="score pageMilestone" />
         <g id="i1ndtfoj" class="system">
            <g id="gugemr7" class="section systemMilestone" />
            <g id="c7jv00u" class="section systemMilestone" />
            <g id="tvpw0ae" class="measure">
               <g id="c1xdswgp" class="staff">
                  <path d="M0 540 L4976 540" stroke-width="13" />
                  <path d="M0 720 L4976 720" stroke-width="13" />
                  <path d="M0 900 L4976 900" stroke-width="13" />
                  <path d="M0 1080 L4976 1080" stroke-width="13" />
                  <path d="M0 1260 L4976 1260" stroke-width="13" />
                  <g id="c13iqvc3" class="clef">
                     <use xlink:href="#E062-t1yrltac" transform="translate(88, 720) scale(0.72, 0.72)" />
                  </g>
                  <g id="df5gova" class="keySig" />
                  <g id="e8w9roa" class="meterSig">
                     <use xlink:href="#E084-t1yrltac" transform="translate(755, 720) scale(0.72, 0.72)" />
                     <use xlink:href="#E084-t1yrltac" transform="translate(755, 1080) scale(0.72, 0.72)" />
                  </g>
                  <g class="ledgerLines above">
                     <path d="M4465 360 L4787 360" stroke-width="22" />
                  </g>
                  <g id="d1lkwwy0" class="layer">
                     <g id="e1jop1ln" class="note">
                        <g class="notehead">
                           <use xlink:href="#E0A4-t1yrltac" transform="translate(1317, 990) scale(0.72, 0.72)" />
                        </g>
                        <g id="r7259y2" class="stem">
                           <path d="M1534 962 L1534 360" stroke-width="18" />
                           <g id="s28csak" class="flag">
                              <use xlink:href="#E240-t1yrltac" transform="translate(1525, 360) scale(0.72, 0.72)" />
                           </g>
                        </g>
                        <g id="fzhnk7w" class="accid" />
                        <g id="g1v8svmp" class="artic">
                           <use xlink:href="#E4A3-t1yrltac" transform="translate(1396, 1136) scale(0.72, 0.72)" />
                        </g>
                     </g>
                     <g id="hyrmrj8" class="note">
                        <g class="notehead">
                           <use xlink:href="#E0A4-t1yrltac" transform="translate(1813, 900) scale(0.72, 0.72)" />
                        </g>
                        <g id="t1cxjrpg" class="stem">
                           <path d="M1822 928 L1822 1500" stroke-width="18" />
                           <g id="upknvii" class="flag">
                              <use xlink:href="#E241-t1yrltac" transform="translate(1813, 1500) scale(0.72, 0.72)" />
                           </g>
                        </g>
                        <g id="i7t17ek" class="accid" />
                        <g id="jd1kt6v" class="artic">
                           <use xlink:href="#E4A2-t1yrltac" transform="translate(1892, 664) scale(0.72, 0.72)" />
                        </g>
                     </g>
                     <g id="kc0qu73" class="note">
                        <g class="notehead">
                           <use xlink:href="#E0A4-t1yrltac" transform="translate(2263, 810) scale(0.72, 0.72)" />
                        </g>
                        <g id="v14a4tii" class="stem">
                           <path d="M2272 838 L2272 1440" stroke-width="18" />
                           <g id="w67n1rf" class="flag">
                              <use xlink:href="#E241-t1yrltac" transform="translate(2263, 1440) scale(0.72, 0.72)" />
                           </g>
                        </g>
                        <g id="l1xswf7t" class="accid" />
                        <g id="ml8gm04" class="artic">
                           <use xlink:href="#E4A2-t1yrltac" transform="translate(2342, 664) scale(0.72, 0.72)" />
                        </g>
                     </g>
                     <g id="ns2w3jt" class="note">
                        <g class="notehead">
                           <use xlink:href="#E0A4-t1yrltac" transform="translate(2713, 720) scale(0.72, 0.72)" />
                        </g>
                        <g id="x2jmiv7" class="stem">
                           <path d="M2722 748 L2722 1350" stroke-width="18" />
                           <g id="yni4n4d" class="flag">
                              <use xlink:href="#E241-t1yrltac" transform="translate(2713, 1350) scale(0.72, 0.72)" />
                           </g>
                        </g>
                        <g id="otax95l" class="accid" />
                        <g id="pqdtan1" class="artic">
                           <use xlink:href="#E4A2-t1yrltac" transform="translate(2792, 484) scale(0.72, 0.72)" />
                        </g>
                     </g>
                     <g id="qunahbk" class="note">
                        <g class="notehead">
                           <use xlink:href="#E0A4-t1yrltac" transform="translate(3163, 630) scale(0.72, 0.72)" />
                        </g>
                        <g id="z17d0i47" class="stem">
                           <path d="M3172 658 L3172 1260" stroke-width="18" />
                           <g id="amdivhe" class="flag">
                              <use xlink:href="#E241-t1yrltac" transform="translate(3163, 1260) scale(0.72, 0.72)" />
                           </g>
                        </g>
                        <g id="ru36ze2" class="accid" />
                        <g id="s1mwsmzp" class="artic">
                           <use xlink:href="#E4A2-t1yrltac" transform="translate(3242, 484) scale(0.72, 0.72)" />
                        </g>
                     </g>
                     <g id="t4pk3w5" class="note">
                        <g class="notehead">
                           <use xlink:href="#E0A4-t1yrltac" transform="translate(3613, 540) scale(0.72, 0.72)" />
                        </g>
                        <g id="bfgnwel" class="stem">
                           <path d="M3622 568 L3622 1170" stroke-width="18" />
                           <g id="c1846pt3" class="flag">
                              <use xlink:href="#E241-t1yrltac" transform="translate(3613, 1170) scale(0.72, 0.72)" />
                           </g>
                        </g>
                        <g id="u1qc3tsj" class="accid" />
                        <g id="vkpl7bm" class="artic">
                           <use xlink:href="#E4A2-t1yrltac" transform="translate(3692, 417) scale(0.72, 0.72)" />
                        </g>
                     </g>
                     <g id="w17315xn" class="note">
                        <g class="notehead">
                           <use xlink:href="#E0A4-t1yrltac" transform="translate(4063, 450) scale(0.72, 0.72)" />
                        </g>
                        <g id="dp0drjn" class="stem">
                           <path d="M4072 478 L4072 1080" stroke-width="18" />
                           <g id="eq8qgvv" class="flag">
                              <use xlink:href="#E241-t1yrltac" transform="translate(4063, 1080) scale(0.72, 0.72)" />
                           </g>
                        </g>
                        <g id="x19h4z1e" class="accid" />
                        <g id="y7ki2jg" class="artic">
                           <use xlink:href="#E4A2-t1yrltac" transform="translate(4142, 327) scale(0.72, 0.72)" />
                        </g>
                     </g>
                     <g id="z50jnjj" class="note">
                        <g class="notehead">
                           <use xlink:href="#E0A4-t1yrltac" transform="translate(4513, 360) scale(0.72, 0.72)" />
                        </g>
                        <g id="f16hsati" class="stem">
                           <path d="M4522 388 L4522 990" stroke-width="18" />
                           <g id="g3l4zo2" class="flag">
                              <use xlink:href="#E241-t1yrltac" transform="translate(4513, 990) scale(0.72, 0.72)" />
                           </g>
                        </g>
                        <g id="aznuobw" class="accid" />
                        <g id="b1lel2jx" class="artic">
                           <use xlink:href="#E4A2-t1yrltac" transform="translate(4592, 237) scale(0.72, 0.72)" />
                        </g>
                     </g>
                  </g>
               </g>
               <g id="b1uee5pf" class="barLine">
                  <path d="M4963 540 L4963 1260" stroke-width="27" />
               </g>
            </g>
            <g id="lbwy711" class="systemMilestoneEnd c7jv00u" />
            <g id="m1gqalsd" class="systemMilestoneEnd gugemr7" />
         </g>
         <g id="ntda6mf" class="pageMilestoneEnd e16zka0n" />
         <g id="oc75lha" class="pageMilestoneEnd d1gpsndr" />
      </g>
   </svg>
</svg>
