<svg width="216" height="84" viewBox="0 0 216 84" version="1.1" xmlns="http://www.w3.org/2000/svg" xmlns:xlink="http://www.w3.org/1999/xlink" overflow="visible" id="y1ia5se5">
   <desc>Engraved by Verovio 6.2.0-43f8060</desc>
   <defs>
      <g id="E062-y1ia5se5">
         <path transform="scale(1,-1)" d="M582 -120c0 32 26 58 58 58s58 -26 58 -58s-26 -58 -58 -58s-58 26 -58 58zM582 120c0 32 26 58 58 58s58 -26 58 -58s-26 -58 -58 -58s-58 26 -58 58zM158 96c51 0 73 -14 88 -49l16 -39c0 -17 -2 -30 -7 -40c-3 -11 -10 -21 -19 -31c-17 -18 -49 -43 -84 -43 c-55 0 -77 13 -112 44c-24 21 -35 55 -35 100c0 46 14 81 32 112c30 52 71 79 137 93l36 6l26 2c154 0 235 -68 274 -182c11 -32 18 -68 18 -107c0 -103 -26 -182 -68 -250c-89 -145 -234 -230 -412 -288l-30 -5c-9 0 -14 3 -14 8c3 10 5 11 10 16c35 15 70 30 96 44l78 43 c96 57 162 136 197 258c9 33 17 60 22 100c3 22 5 35 6 39c-7 69 -16 115 -23 140s-4 22 -16 40c-8 12 -19 23 -31 34c-24 21 -62 44 -118 44c-48 0 -84 -8 -113 -28c-28 -19 -42 -44 -42 -73v-16c2 -5 3 -9 4 -11c24 22 52 39 84 39z" />
      </g>
      <g id="E084-y1ia5se5">
         <path transform="scale(1,-1)" d="M20 -78c84 97 114 180 134 329h170c-13 -32 -82 -132 -99 -151l-84 -97c-33 -36 -59 -63 -80 -81h162v102l127 123v-225h57v-39h-57v-34c0 -43 19 -65 57 -65v-34h-244v36c48 0 60 26 60 70v27h-203v39z" />
      </g>
      <g id="E0A4-y1ia5se5">
         <path transform="scale(1,-1)" d="M0 -39c0 68 73 172 200 172c66 0 114 -37 114 -95c0 -84 -106 -171 -218 -171c-64 0 -96 30 -96 94z" />
      </g>
   </defs>
   <style type="text/css">#y1ia5se5 g.ending, #y1ia5se5 g.fing, #y1ia5se5 g.reh, #y1ia5se5 g.tempo {font-weight:bold;}#y1ia5se5 g.dir, #y1ia5se5 g.dynam, #y1ia5se5 g.mNum {font-style:italic;}#y1ia5se5 g.label {font-weight:normal;}#y1ia5se5 ellipse, #y1ia5se5 path, #y1ia5se5 polygon, #y1ia5se5 polyline, #y1ia5se5 rect {stroke:currentColor}</style>
   <svg class="definition-scale" color="black" font-family="Times, serif" viewBox="0 0 5130 2000">
      <g class="page-margin" transform="translate(100, 100)">
         <g id="i7jy189" class="mdiv pageMilestone" />
         <g id="jnykw5n" class="score pageMilestone" />
         <g id="i1qpijco" class="system">
            <g id="l1e055i7" class="section systemMilestone" />
            <g id="c6la0mk" class="section systemMilestone" />
            <g id="y14xcqxq" class="measure">
               <g id="hzne0ol" class="staff">
                  <path d="M0 540 L4930 540" stroke-width="13" />
                  <path d="M0 720 L4930 720" stroke-width="13" />
                  <path d="M0 900 L4930 900" stroke-width="13" />
                  <path d="M0 1080 L4930 1080" stroke-width="13" />
                  <path d="M0 1260 L4930 1260" stroke-width="13" />
                  <g id="u43gw9m" class="clef">
                     <use xlink:href="#E062-y1ia5se5" transform="translate(88, 720) scale(0.72, 0.72)" />
                  </g>
                  <g id="v1huipe2" class="keySig" />
                  <g id="wax0oja" class="meterSig">
                     <use xlink:href="#E084-y1ia5se5" transform="translate(755, 720) scale(0.72, 0.72)" />
                     <use xlink:href="#E084-y1ia5se5" transform="translate(755, 1080) scale(0.72, 0.72)" />
                  </g>
                  <g class="ledgerLines above">
                     <path d="M4419 360 L4741 360" stroke-width="22" />
                  </g>
                  <g id="iwd99t" class="layer">
                     <g id="j10cvi9k" class="beam">
                        <polygon points="1317,1530 2685,1350 2685,1260 1317,1440" />
                        <g id="k18lcfdt" class="note">
                           <g class="notehead">
                              <use xlink:href="#E0A4-y1ia5se5" transform="translate(1317, 990) scale(0.72, 0.72)" />
                           </g>
                           <g id="r1ldipg9" class="stem">
                              <path d="M1326 1018 L1326 1512" stroke-width="18" />
                           </g>
                           <g id="l1iv2592" class="accid" />
                        </g>
                        <g id="nstp1ht" class="note">
                           <g class="notehead">
                              <use xlink:href="#E0A4-y1ia5se5" transform="translate(1767, 900) scale(0.72, 0.72)" />
                           </g>
                           <g id="sjc4e7b" class="stem">
                              <path d="M1776 928 L1776 1452" stroke-width="18" />
                           </g>
                           <g id="o1bl43sl" class="accid" />
                        </g>
                        <g id="p1yviyxp" class="note">
                           <g class="notehead">
                              <use xlink:href="#E0A4-y1ia5se5" transform="translate(2217, 810) scale(0.72, 0.72)" />
                           </g>
                           <g id="t1d0789c" class="stem">
                              <path d="M2226 838 L2226 1392" stroke-width="18" />
                           </g>
                           <g id="q1bifk5l" class="accid" />
                        </g>
                        <g id="rq772b" class="note">
                           <g class="notehead">
                              <use xlink:href="#E0A4-y1ia5se5" transform="translate(2667, 720) scale(0.72, 0.72)" />
                           </g>
                           <g id="u1l7oua3" class="stem">
                              <path d="M2676 748 L2676 1332" stroke-width="18" />
                           </g>
                           <g id="sc6t53h" class="accid" />
                        </g>
                     </g>
                     <g id="t1adjrc7" class="beam">
                        <polygon points="3117,1260 4485,1080 4485,990 3117,1170" />
                        <g id="ux1au38" class="note">
                           <g class="notehead">
                              <use xlink:href="#E0A4-y1ia5se5" transform="translate(3117, 630) scale(0.72, 0.72)" />
                           </g>
                           <g id="v151oija" class="stem">
                              <path d="M3126 658 L3126 1242" stroke-width="18" />
                           </g>
                           <g id="vwgbaav" class="accid" />
                        </g>
                        <g id="whhbkz5" class="note">
                           <g class="notehead">
                              <use xlink:href="#E0A4-y1ia5se5" transform="translate(3567, 540) scale(0.72, 0.72)" />
                           </g>
                           <g id="wc3tawn" class="stem">
                              <path d="M3576 568 L3576 1182" stroke-width="18" />
                           </g>
                           <g id="x1i5yq" class="accid" />
                        </g>
                        <g id="yoyr29g" class="note">
                           <g class="notehead">
                              <use xlink:href="#E0A4-y1ia5se5" transform="translate(4017, 450) scale(0.72, 0.72)" />
                           </g>
                           <g id="x7px95e" class="stem">
                              <path d="M4026 478 L4026 1122" stroke-width="18" />
                           </g>
                           <g id="zddj2rq" class="accid" />
                        </g>
                        <g id="a1j3e5ik" class="note">
                           <g class="notehead">
                              <use xlink:href="#E0A4-y1ia5se5" transform="translate(4467, 360) scale(0.72, 0.72)" />
                           </g>
                           <g id="y12o6c00" class="stem">
                              <path d="M4476 388 L4476 1062" stroke-width="18" />
                           </g>
                           <g id="b1fex31j" class="accid" />
                        </g>
                     </g>
                  </g>
               </g>
               <g id="m9hw77t" class="slur">
                  <path d="M1430,787 C2396,196 3456,-16 4578,157 C3459,45 2417,255 1430,787" stroke-width="9" stroke-linecap="round" stroke-linejoin="round" />
               </g>
               <g id="giz0e5f" class="barLine">
                  <path d="M4917 540 L4917 1260" stroke-width="27" />
               </g>
            </g>
            <g id="l1vcg90j" class="systemMilestoneEnd c6la0mk" />
            <g id="mutsohp" class="systemMilestoneEnd l1e055i7" />
         </g>
         <g id="n4ooykp" class="pageMilestoneEnd jnykw5n" />
         <g id="o1q3t9dk" class="pageMilestoneEnd i7jy189" />
      </g>
   </svg>
</svg>
