<svg width="305" height="84" viewBox="0 0 305 84" version="1.1" xmlns="http://www.w3.org/2000/svg" xmlns:xlink="http://www.w3.org/1999/xlink" overflow="visible" id="v199k3u9">
   <desc>Engraved by Verovio 6.2.0-43f8060</desc>
   <defs>
      <g id="E062-v199k3u9">
         <path transform="scale(1,-1)" d="M582 -120c0 32 26 58 58 58s58 -26 58 -58s-26 -58 -58 -58s-58 26 -58 58zM582 120c0 32 26 58 58 58s58 -26 58 -58s-26 -58 -58 -58s-58 26 -58 58zM158 96c51 0 73 -14 88 -49l16 -39c0 -17 -2 -30 -7 -40c-3 -11 -10 -21 -19 -31c-17 -18 -49 -43 -84 -43 c-55 0 -77 13 -112 44c-24 21 -35 55 -35 100c0 46 14 81 32 112c30 52 71 79 137 93l36 6l26 2c154 0 235 -68 274 -182c11 -32 18 -68 18 -107c0 -103 -26 -182 -68 -250c-89 -145 -234 -230 -412 -288l-30 -5c-9 0 -14 3 -14 8c3 10 5 11 10 16c35 15 70 30 96 44l78 43 c96 57 162 136 197 258c9 33 17 60 22 100c3 22 5 35 6 39c-7 69 -16 115 -23 140s-4 22 -16 40c-8 12 -19 23 -31 34c-24 21 -62 44 -118 44c-48 0 -84 -8 -113 -28c-28 -19 -42 -44 -42 -73v-16c2 -5 3 -9 4 -11c24 22 52 39 84 39z" />
      </g>
      <g id="E084-v199k3u9">
         <path transform="scale(1,-1)" d="M20 -78c84 97 114 180 134 329h170c-13 -32 -82 -132 -99 -151l-84 -97c-33 -36 -59 -63 -80 -81h162v102l127 123v-225h57v-39h-57v-34c0 -43 19 -65 57 -65v-34h-244v36c48 0 60 26 60 70v27h-203v39z" />
      </g>
      <g id="E0A4-v199k3u9">
         <path transform="scale(1,-1)" d="M0 -39c0 68 73 172 200 172c66 0 114 -37 114 -95c0 -84 -106 -171 -218 -171c-64 0 -96 30 -96 94z" />
      </g>
   </defs>
   <style type="text/css">#v199k3u9 g.ending, #v199k3u9 g.fing, #v199k3u9 g.reh, #v199k3u9 g.tempo {font-weight:bold;}#v199k3u9 g.dir, #v199k3u9 g.dynam, #v199k3u9 g.mNum {font-style:italic;}#v199k3u9 g.label {font-weight:normal;}#v199k3u9 ellipse, #v199k3u9 path, #v199k3u9 polygon, #v199k3u9 polyline, #v199k3u9 rect {stroke:currentColor}</style>
   <svg class="definition-scale" color="black" font-family="Times, serif" viewBox="0 0 7240 2000">
      <g class="page-margin" transform="translate(100, 100)">
         <g id="f1tj7lga" class="mdiv pageMilestone" />
         <g id="gff1kb7" class="score pageMilestone" />
         <g id="n1ar9a2" class="system">
            <g id="ibu30y6" class="section systemMilestone" />
            <g id="h1xxbe0h" class="section systemMilestone" />
            <g id="v1bwpfql" class="measure">
               <g id="eikf7op" class="staff">
                  <path d="M0 540 L4090 540" stroke-width="13" />
                  <path d="M0 720 L4090 720" stroke-width="13" />
                  <path d="M0 900 L4090 900" stroke-width="13" />
                  <path d="M0 1080 L4090 1080" stroke-width="13" />
                  <path d="M0 1260 L4090 1260" stroke-width="13" />
                  <g id="b12tlpdo" class="clef">
                     <use xlink:href="#E062-v199k3u9" transform="translate(88, 720) scale(0.72, 0.72)" />
                  </g>
                  <g id="clkwcan" class="keySig" />
                  <g id="d1vncjg0" class="meterSig">
                     <use xlink:href="#E084-v199k3u9" transform="translate(755, 720) scale(0.72, 0.72)" />
                     <use xlink:href="#E084-v199k3u9" transform="translate(755, 1080) scale(0.72, 0.72)" />
                  </g>
                  <g id="fautzx0" class="layer">
                     <g id="g1jburiy" class="note">
                        <g class="notehead">
                           <use xlink:href="#E0A4-v199k3u9" transform="translate(1317, 990) scale(0.72, 0.72)" />
                        </g>
                        <g id="ymf6dxn" class="stem">
                           <path d="M1534 962 L1534 360" stroke-width="18" />
                        </g>
                        <g id="h1ns49hx" class="accid" />
                     </g>
                     <g id="i18tute8" class="note">
                        <g class="notehead">
                           <use xlink:href="#E0A4-v199k3u9" transform="translate(2007, 900) scale(0.72, 0.72)" />
                        </g>
                        <g id="z1xywezk" class="stem">
                           <path d="M2016 928 L2016 1500" stroke-width="18" />
                        </g>
                        <g id="jcflqpk" class="accid" />
                     </g>
                     <g id="k1ksy7l6" class="note">
                        <g class="notehead">
                           <use xlink:href="#E0A4-v199k3u9" transform="translate(2697, 810) scale(0.72, 0.72)" />
                        </g>
                        <g id="ax6jsv1" class="stem">
                           <path d="M2706 838 L2706 1440" stroke-width="18" />
                        </g>
                        <g id="l1xcx5o8" class="accid" />
                     </g>
                     <g id="mppbrid" class="note">
                        <g class="notehead">
                           <use xlink:href="#E0A4-v199k3u9" transform="translate(3387, 720) scale(0.72, 0.72)" />
                        </g>
                        <g id="b1ovd1cz" class="stem">
                           <path d="M3396 748 L3396 1350" stroke-width="18" />
                        </g>
                        <g id="n1q2p6h1" class="accid" />
                     </g>
                  </g>
               </g>
               <g id="dctt8tz" class="barLine">
                  <path d="M4077 540 L4077 1260" stroke-width="27" />
               </g>
            </g>
            <g id="o13hivqi" class="measure">
               <g id="x190kvny" class="staff">
                  <path d="M4090 540 L7043 540" stroke-width="13" />
                  <path d="M4090 720 L7043 720" stroke-width="13" />
                  <path d="M4090 900 L7043 900" stroke-width="13" />
                  <path d="M4090 1080 L7043 1080" stroke-width="13" />
                  <path d="M4090 1260 L7043 1260" stroke-width="13" />
                  <g class="ledgerLines above">
                     <path d="M6292 360 L6614 360" stroke-width="22" />
                  </g>
                  <g id="y1lop2l4" class="layer">
                     <g id="z9iv97a" class="note">
                        <g class="notehead">
                           <use xlink:href="#E0A4-v199k3u9" transform="translate(4270, 630) scale(0.72, 0.72)" />
                        </g>
                        <g id="c1ieht8c" class="stem">
                           <path d="M4279 658 L4279 1260" stroke-width="18" />
                        </g>
                        <g id="a10rz1bq" class="accid" />
                     </g>
                     <g id="b1yv5ypg" class="note">
                        <g class="notehead">
                           <use xlink:href="#E0A4-v199k3u9" transform="translate(4960, 540) scale(0.72, 0.72)" />
                        </g>
                        <g id="d1dadw4l" class="stem">
                           <path d="M4969 568 L4969 1170" stroke-width="18" />
                        </g>
                        <g id="c1ebbvyy" class="accid" />
                     </g>
                     <g id="dovkvjf" class="note">
                        <g class="notehead">
                           <use xlink:href="#E0A4-v199k3u9" transform="translate(5650, 450) scale(0.72, 0.72)" />
                        </g>
                        <g id="e1bd15w3" class="stem">
                           <path d="M5659 478 L5659 1080" stroke-width="18" />
                        </g>
                        <g id="e1xa3eto" class="accid" />
                     </g>
                     <g id="fp34omm" class="note">
                        <g class="notehead">
                           <use xlink:href="#E0A4-v199k3u9" transform="translate(6340, 360) scale(0.72, 0.72)" />
                        </g>
                        <g id="fv4km0j" class="stem">
                           <path d="M6349 388 L6349 990" stroke-width="18" />
                        </g>
                        <g id="g1v1uluy" class="accid" />
                     </g>
                  </g>
               </g>
               <g id="wrzp7zb" class="barLine">
                  <path d="M7030 540 L7030 1260" stroke-width="27" />
               </g>
            </g>
            <g id="q1xa48eo" class="systemMilestoneEnd h1xxbe0h" />
            <g id="rcjifxw" class="systemMilestoneEnd ibu30y6" />
         </g>
         <g id="soqttj1" class="pageMilestoneEnd gff1kb7" />
         <g id="t1xhrky2" class="pageMilestoneEnd f1tj7lga" />
      </g>
   </svg>
</svg>
