<svg width="216" height="84" viewBox="0 0 216 84" version="1.1" xmlns="http://www.w3.org/2000/svg" xmlns:xlink="http://www.w3.org/1999/xlink" overflow="visible" id="wk5cnb">
   <desc>Engraved by Verovio 6.2.0-43f8060</desc>
   <defs>
      <g id="E062-wk5cnb">
         <path transform="scale(1,-1)" d="M582 -120c0 32 26 58 58 58s58 -26 58 -58s-26 -58 -58 -58s-58 26 -58 58zM582 120c0 32 26 58 58 58s58 -26 58 -58s-26 -58 -58 -58s-58 26 -58 58zM158 96c51 0 73 -14 88 -49l16 -39c0 -17 -2 -30 -7 -40c-3 -11 -10 -21 -19 -31c-17 -18 -49 -43 -84 -43 c-55 0 -77 13 -112 44c-24 21 -35 55 -35 100c0 46 14 81 32 112c30 52 71 79 137 93l36 6l26 2c154 0 235 -68 274 -182c11 -32 18 -68 18 -107c0 -103 -26 -182 -68 -250c-89 -145 -234 -230 -412 -288l-30 -5c-9 0 -14 3 -14 8c3 10 5 11 10 16c35 15 70 30 96 44l78 43 c96 57 162 136 197 258c9 33 17 60 22 100c3 22 5 35 6 39c-7 69 -16 115 -23 140s-4 22 -16 40c-8 12 -19 23 -31 34c-24 21 -62 44 -118 44c-48 0 -84 -8 -113 -28c-28 -19 -42 -44 -42 -73v-16c2 -5 3 -9 4 -11c24 22 52 39 84 39z" />
      </g>
      <g id="E084-wk5cnb">
         <path transform="scale(1,-1)" d="M20 -78c84 97 114 180 134 329h170c-13 -32 -82 -132 -99 -151l-84 -97c-33 -36 -59 -63 -80 -81h162v102l127 123v-225h57v-39h-57v-34c0 -43 19 -65 57 -65v-34h-244v36c48 0 60 26 60 70v27h-203v39z" />
      </g>
      <g id="E0A4-wk5cnb">
         <path transform="scale(1,-1)" d="M0 -39c0 68 73 172 200 172c66 0 114 -37 114 -95c0 -84 -106 -171 -218 -171c-64 0 -96 30 -96 94z" />
      </g>
      <g id="E4A2-wk5cnb">
         <path transform="scale(1,-1)" d="M0 48c0 26 22 48 48 48s48 -22 48 -48s-22 -48 -48 -48s-48 22 -48 48z" />
      </g>
   </defs>
   <style type="text/css">#wk5cnb g.ending, #wk5cnb g.fing, #wk5cnb g.reh, #wk5cnb g.tempo {font-weight:bold;}#wk5cnb g.dir, #wk5cnb g.dynam, #wk5cnb g.mNum {font-style:italic;}#wk5cnb g.label {font-weight:normal;}#wk5cnb ellipse, #wk5cnb path, #wk5cnb polygon, #wk5cnb polyline, #wk5cnb rect {stroke:currentColor}</style>
   <svg class="definition-scale" color="black" font-family="Times, serif" viewBox="0 0 5130 2000">
      <g class="page-margin" transform="translate(100, 100)">
         <g id="g16m0s5i" class="mdiv pageMilestone" />
         <g id="h11zvh3x" class="score pageMilestone" />
         <g id="l1ivz0i3" class="system">
            <g id="j1i36b10" class="section systemMilestone" />
            <g id="f1auwcl0" class="section systemMilestone" />
            <g id="w14hpfk8" class="measure">
               <g id="f14ley4z" class="staff">
                  <path d="M0 540 L4930 540" stroke-width="13" />
                  <path d="M0 720 L4930 720" stroke-width="13" />
                  <path d="M0 900 L4930 900" stroke-width="13" />
                  <path d="M0 1080 L4930 1080" stroke-width="13" />
                  <path d="M0 1260 L4930 1260" stroke-width="13" />
                  <g id="x1v4364o" class="clef">
                     <use xlink:href="#E062-wk5cnb" transform="translate(88, 720) scale(0.72, 0.72)" />
                  </g>
                  <g id="yss3rr" class="keySig" />
                  <g id="z1w97yfz" class="meterSig">
                     <use xlink:href="#E084-wk5cnb" transform="translate(755, 720) scale(0.72, 0.72)" />
                     <use xlink:href="#E084-wk5cnb" transform="translate(755, 1080) scale(0.72, 0.72)" />
                  </g>
                  <g class="ledgerLines above">
                     <path d="M4419 360 L4741 360" stroke-width="22" />
                  </g>
                  <g id="gtppcw2" class="layer">
                     <g id="h1ddzjr3" class="beam">
                        <polygon points="1317,1530 2685,1350 2685,1260 1317,1440" />
                        <g id="injo9iu" class="note">
                           <g class="notehead">
                              <use xlink:href="#E0A4-wk5cnb" transform="translate(1317, 990) scale(0.72, 0.72)" />
                           </g>
                           <g id="u17zjcca" class="stem">
                              <path d="M1326 1018 L1326 1512" stroke-width="18" />
                           </g>
                           <g id="j1ekq7yw" class="accid" />
                           <g id="k1ync74u" class="artic">
                              <use xlink:href="#E4A2-wk5cnb" transform="translate(1396, 844) scale(0.72, 0.72)" />
                           </g>
                        </g>
                        <g id="l8nqhk3" class="note">
                           <g class="notehead">
                              <use xlink:href="#E0A4-wk5cnb" transform="translate(1767, 900) scale(0.72, 0.72)" />
                           </g>
                           <g id="v5gyc90" class="stem">
                              <path d="M1776 928 L1776 1452" stroke-width="18" />
                           </g>
                           <g id="m17kfgcc" class="accid" />
                        </g>
                        <g id="o1lpdeba" class="note">
                           <g class="notehead">
                              <use xlink:href="#E0A4-wk5cnb" transform="translate(2217, 810) scale(0.72, 0.72)" />
                           </g>
                           <g id="w426tzi" class="stem">
                              <path d="M2226 838 L2226 1392" stroke-width="18" />
                           </g>
                           <g id="p1n6gtzy" class="accid" />
                        </g>
                        <g id="q70dlg4" class="note">
                           <g class="notehead">
                              <use xlink:href="#E0A4-wk5cnb" transform="translate(2667, 720) scale(0.72, 0.72)" />
                           </g>
                           <g id="xbezvn7" class="stem">
                              <path d="M2676 748 L2676 1332" stroke-width="18" />
                           </g>
                           <g id="r1pvblux" class="accid" />
                           <g id="s1jyup7n" class="artic">
                              <use xlink:href="#E4A2-wk5cnb" transform="translate(2746, 484) scale(0.72, 0.72)" />
                           </g>
                        </g>
                     </g>
                     <g id="t1k8a1j9" class="beam">
                        <polygon points="3117,1260 4485,1080 4485,990 3117,1170" />
                        <g id="u164ds9x" class="note">
                           <g class="notehead">
                              <use xlink:href="#E0A4-wk5cnb" transform="translate(3117, 630) scale(0.72, 0.72)" />
                           </g>
                           <g id="ywas3yx" class="stem">
                              <path d="M3126 658 L3126 1242" stroke-width="18" />
                           </g>
                           <g id="vn4adth" class="accid" />
                           <g id="w1v4dkky" class="artic">
                              <use xlink:href="#E4A2-wk5cnb" transform="translate(3196, 484) scale(0.72, 0.72)" />
                           </g>
                        </g>
                        <g id="xwq4fyc" class="note">
                           <g class="notehead">
                              <use xlink:href="#E0A4-wk5cnb" transform="translate(3567, 540) scale(0.72, 0.72)" />
                           </g>
                           <g id="zjvae4w" class="stem">
                              <path d="M3576 568 L3576 1182" stroke-width="18" />
                           </g>
                           <g id="y6q2rxh" class="accid" />
                        </g>
                        <g id="a1p2kshh" class="note">
                           <g class="notehead">
                              <use xlink:href="#E0A4-wk5cnb" transform="translate(4017, 450) scale(0.72, 0.72)" />
                           </g>
                           <g id="a1254lvd" class="stem">
                              <path d="M4026 478 L4026 1122" stroke-width="18" />
                           </g>
                           <g id="b1whruu7" class="accid" />
                        </g>
                        <g id="c739yzp" class="note">
                           <g class="notehead">
                              <use xlink:href="#E0A4-wk5cnb" transform="translate(4467, 360) scale(0.72, 0.72)" />
                           </g>
                           <g id="bspl0my" class="stem">
                              <path d="M4476 388 L4476 1062" stroke-width="18" />
                           </g>
                           <g id="d1p49az0" class="accid" />
                           <g id="ekq28do" class="artic">
                              <use xlink:href="#E4A2-wk5cnb" transform="translate(4546, 237) scale(0.72, 0.72)" />
                           </g>
                        </g>
                     </g>
                  </g>
               </g>
               <g id="n1epw7xv" class="slur">
                  <path d="M1880,697 C1916,549 2235,485 2328,607 C2217,549 1958,601 1880,697" stroke-width="9" stroke-linecap="round" stroke-linejoin="round" />
               </g>
               <g id="z1eoryfq" class="slur">
                  <path d="M3680,337 C3716,189 4035,125 4128,247 C4017,189 3758,241 3680,337" stroke-width="9" stroke-linecap="round" stroke-linejoin="round" />
               </g>
               <g id="e1wc1n34" class="barLine">
                  <path d="M4917 540 L4917 1260" stroke-width="27" />
               </g>
            </g>
            <g id="oqbqnze" class="systemMilestoneEnd f1auwcl0" />
            <g id="p16bxkhf" class="systemMilestoneEnd j1i36b10" />
         </g>
         <g id="q1h376kp" class="pageMilestoneEnd h11zvh3x" />
         <g id="rchzzcp" class="pageMilestoneEnd g16m0s5i" />
      </g>
   </svg>
</svg>
