<svg width="305" height="84" viewBox="0 0 305 84" version="1.1" xmlns="http://www.w3.org/2000/svg" xmlns:xlink="http://www.w3.org/1999/xlink" overflow="visible" id="p1859occ">
   <desc>Engraved by Verovio 6.2.0-43f8060</desc>
   <defs>
      <g id="E062-p1859occ">
         <path transform="scale(1,-1)" d="M582 -120c0 32 26 58 58 58s58 -26 58 -58s-26 -58 -58 -58s-58 26 -58 58zM582 120c0 32 26 58 58 58s58 -26 58 -58s-26 -58 -58 -58s-58 26 -58 58zM158 96c51 0 73 -14 88 -49l16 -39c0 -17 -2 -30 -7 -40c-3 -11 -10 -21 -19 -31c-17 -18 -49 -43 -84 -43 c-55 0 -77 13 -112 44c-24 21 -35 55 -35 100c0 46 14 81 32 112c30 52 71 79 137 93l36 6l26 2c154 0 235 -68 274 -182c11 -32 18 -68 18 -107c0 -103 -26 -182 -68 -250c-89 -145 -234 -230 -412 -288l-30 -5c-9 0 -14 3 -14 8c3 10 5 11 10 16c35 15 70 30 96 44l78 43 c96 57 162 136 197 258c9 33 17 60 22 100c3 22 5 35 6 39c-7 69 -16 115 -23 140s-4 22 -16 40c-8 12 -19 23 -31 34c-24 21 -62 44 -118 44c-48 0 -84 -8 -113 -28c-28 -19 -42 -44 -42 -73v-16c2 -5 3 -9 4 -11c24 22 52 39 84 39z" />
      </g>
      <g id="E084-p1859occ">
         <path transform="scale(1,-1)" d="M20 -78c84 97 114 180 134 329h170c-13 -32 -82 -132 -99 -151l-84 -97c-33 -36 -59 -63 -80 -81h162v102l127 123v-225h57v-39h-57v-34c0 -43 19 -65 57 -65v-34h-244v36c48 0 60 26 60 70v27h-203v39z" />
      </g>
      <g id="E0A4-p1859occ">
         <path transform="scale(1,-1)" d="M0 -39c0 68 73 172 200 172c66 0 114 -37 114 -95c0 -84 -106 -171 -218 -171c-64 0 -96 30 -96 94z" />
      </g>
      <g id="E4E5-p1859occ">
         <path transform="scale(1,-1)" d="M107 292c-13 24 -30 49 -52 71c-1 1 0 2 0 3l-2 2c3 3 4 4 6 4c12 0 26 -7 40 -20s44 -40 89 -81c26 -24 28 -29 46 -47c4 -4 8 -9 10 -14c6 -8 8 -16 8 -27c0 -19 -12 -40 -36 -61c-28 -23 -49 -38 -61 -73c-4 -11 -7 -27 -10 -50c13 -43 34 -83 59 -121 c31 -47 59 -79 101 -129c-8 0 -26 7 -54 20l-62 29l-21 6l-23 1c-25 0 -45 -10 -60 -30l-4 -14l-1 -12c0 -33 20 -56 39 -78c8 -9 17 -18 26 -26c17 -15 27 -24 28 -30l-3 -3c-11 5 -19 10 -25 15c-9 3 -37 21 -45 26c-24 14 -45 32 -63 51c-19 21 -37 44 -37 71 c0 63 27 95 80 95c41 0 86 -18 136 -52c-19 26 -37 48 -55 66c-23 23 -48 44 -73 65c-28 23 -47 40 -58 53s-17 26 -18 39c75 64 113 125 113 183c0 27 -7 48 -18 68z" />
      </g>
   </defs>
   <style type="text/css">#p1859occ g.ending, #p1859occ g.fing, #p1859occ g.reh, #p1859occ g.tempo {font-weight:bold;}#p1859occ g.dir, #p1859occ g.dynam, #p1859occ g.mNum {font-style:italic;}#p1859occ g.label {font-weight:normal;}#p1859occ ellipse, #p1859occ path, #p1859occ polygon, #p1859occ polyline, #p1859occ rect {stroke:currentColor}</style>
   <svg class="definition-scale" color="black" font-family="Times, serif" viewBox="0 0 7240 2000">
      <g class="page-margin" transform="translate(100, 100)">
         <g id="zybt883" class="mdiv pageMilestone" />
         <g id="aznn7vy" class="score pageMilestone" />
         <g id="x1lhlnqb" class="system">
            <g id="c93k6eo" class="section systemMilestone" />
            <g id="retg0xh" class="section systemMilestone" />
            <g id="ptmky6m" class="measure">
               <g id="ysb3sw7" class="staff">
                  <path d="M0 540 L4090 540" stroke-width="13" />
                  <path d="M0 720 L4090 720" stroke-width="13" />
                  <path d="M0 900 L4090 900" stroke-width="13" />
                  <path d="M0 1080 L4090 1080" stroke-width="13" />
                  <path d="M0 1260 L4090 1260" stroke-width="13" />
                  <g id="j19ewr36" class="clef">
                     <use xlink:href="#E062-p1859occ" transform="translate(88, 720) scale(0.72, 0.72)" />
                  </g>
                  <g id="k17uq7zp" class="keySig" />
                  <g id="l1c4gmo4" class="meterSig">
                     <use xlink:href="#E084-p1859occ" transform="translate(755, 720) scale(0.72, 0.72)" />
                     <use xlink:href="#E084-p1859occ" transform="translate(755, 1080) scale(0.72, 0.72)" />
                  </g>
                  <g id="z17tr72r" class="layer">
                     <g id="cv1z2gv" class="chord">
                        <g id="i2q5pup" class="stem">
                           <path d="M1326 838 L1326 1560" stroke-width="18" />
                        </g>
                        <g id="a1qyh8gf" class="note">
                           <g class="notehead">
                              <use xlink:href="#E0A4-p1859occ" transform="translate(1317, 990) scale(0.72, 0.72)" />
                           </g>
                           <g id="b1l8rsu8" class="accid" />
                        </g>
                        <g id="d2bk8zx" class="note">
                           <g class="notehead">
                              <use xlink:href="#E0A4-p1859occ" transform="translate(1317, 810) scale(0.72, 0.72)" />
                           </g>
                           <g id="e1duni8c" class="accid" />
                        </g>
                     </g>
                     <g id="h196we5r" class="chord">
                        <g id="j12xfpmv" class="stem">
                           <path d="M2016 748 L2016 1500" stroke-width="18" />
                        </g>
                        <g id="f1yksa6i" class="note">
                           <g class="notehead">
                              <use xlink:href="#E0A4-p1859occ" transform="translate(2007, 900) scale(0.72, 0.72)" />
                           </g>
                           <g id="g9hvxmq" class="accid" />
                        </g>
                        <g id="i1ikio6b" class="note">
                           <g class="notehead">
                              <use xlink:href="#E0A4-p1859occ" transform="translate(2007, 720) scale(0.72, 0.72)" />
                           </g>
                           <g id="j1v6a93t" class="accid" />
                        </g>
                     </g>
                     <g id="mbu2wqq" class="chord">
                        <g id="ktqrkle" class="stem">
                           <path d="M2706 658 L2706 1440" stroke-width="18" />
                        </g>
                        <g id="kwmwo1x" class="note">
                           <g class="notehead">
                              <use xlink:href="#E0A4-p1859occ" transform="translate(2697, 810) scale(0.72, 0.72)" />
                           </g>
                           <g id="l1clcovw" class="accid" />
                        </g>
                        <g id="n3dzbvu" class="note">
                           <g class="notehead">
                              <use xlink:href="#E0A4-p1859occ" transform="translate(2697, 630) scale(0.72, 0.72)" />
                           </g>
                           <g id="o1214a2a" class="accid" />
                        </g>
                     </g>
                     <g id="ry2mxe8" class="chord">
                        <g id="l12r3kr6" class="stem">
                           <path d="M3396 568 L3396 1350" stroke-width="18" />
                        </g>
                        <g id="p1t1k0iy" class="note">
                           <g class="notehead">
                              <use xlink:href="#E0A4-p1859occ" transform="translate(3387, 720) scale(0.72, 0.72)" />
                           </g>
                           <g id="q1lpgsxp" class="accid" />
                        </g>
                        <g id="s66fq75" class="note">
                           <g class="notehead">
                              <use xlink:href="#E0A4-p1859occ" transform="translate(3387, 540) scale(0.72, 0.72)" />
                           </g>
                           <g id="t1c111q3" class="accid" />
                        </g>
                     </g>
                  </g>
               </g>
               <g id="xfi7x98" class="barLine">
                  <path d="M4077 540 L4077 1260" stroke-width="27" />
               </g>
            </g>
            <g id="ukj25m" class="measure">
               <g id="d1rrf9er" class="staff">
                  <path d="M4090 540 L7043 540" stroke-width="13" />
                  <path d="M4090 720 L7043 720" stroke-width="13" />
                  <path d="M4090 900 L7043 900" stroke-width="13" />
                  <path d="M4090 1080 L7043 1080" stroke-width="13" />
                  <path d="M4090 1260 L7043 1260" stroke-width="13" />
                  <g class="ledgerLines above">
                     <path d="M4912 360 L5234 360" stroke-width="22" />
                  </g>
                  <g id="eatlnmd" class="layer">
                     <g id="h1xjqclf" class="chord">
                        <g id="mvjdgl9" class="stem">
                           <path d="M4279 478 L4279 1260" stroke-width="18" />
                        </g>
                        <g id="fohasqu" class="note">
                           <g class="notehead">
                              <use xlink:href="#E0A4-p1859occ" transform="translate(4270, 630) scale(0.72, 0.72)" />
                           </g>
                           <g id="gdbuaze" class="accid" />
                        </g>
                        <g id="i1agdf8u" class="note">
                           <g class="notehead">
                              <use xlink:href="#E0A4-p1859occ" transform="translate(4270, 450) scale(0.72, 0.72)" />
                           </g>
                           <g id="jz8qq39" class="accid" />
                        </g>
                     </g>
                     <g id="m1aqec5p" class="chord">
                        <g id="n1knuabi" class="stem">
                           <path d="M4969 388 L4969 1170" stroke-width="18" />
                        </g>
                        <g id="k1eeot3u" class="note">
                           <g class="notehead">
                              <use xlink:href="#E0A4-p1859occ" transform="translate(4960, 540) scale(0.72, 0.72)" />
                           </g>
                           <g id="ldhjkjg" class="accid" />
                        </g>
                        <g id="n18vfubs" class="note">
                           <g class="notehead">
                              <use xlink:href="#E0A4-p1859occ" transform="translate(4960, 360) scale(0.72, 0.72)" />
                           </g>
                           <g id="o9q6daw" class="accid" />
                        </g>
                     </g>
                     <g id="p14umvbr" class="rest">
                        <use xlink:href="#E4E5-p1859occ" transform="translate(5650, 900) scale(0.72, 0.72)" />
                     </g>
                     <g id="qjfr5bb" class="rest">
                        <use xlink:href="#E4E5-p1859occ" transform="translate(6340, 900) scale(0.72, 0.72)" />
                     </g>
                  </g>
               </g>
               <g id="cm33fgq" class="barLine">
                  <path d="M7030 540 L7030 1260" stroke-width="27" />
               </g>
            </g>
            <g id="a1yollrk" class="systemMilestoneEnd retg0xh" />
            <g id="b1y0zl2v" class="systemMilestoneEnd c93k6eo" />
         </g>
         <g id="c6znluk" class="pageMilestoneEnd aznn7vy" />
         <g id="dqa0o0m" class="pageMilestoneEnd zybt883" />
      </g>
   </svg>
</svg>
