<svg width="305" height="113" viewBox="0 0 305 113" version="1.1" xmlns="http://www.w3.org/2000/svg" xmlns:xlink="http://www.w3.org/1999/xlink" overflow="visible" id="r1ybgi5d">
   <desc>Engraved by Verovio 6.2.0-43f8060</desc>
   <defs>
      <g id="E062-r1ybgi5d">
         <path transform="scale(1,-1)" d="M582 -120c0 32 26 58 58 58s58 -26 58 -58s-26 -58 -58 -58s-58 26 -58 58zM582 120c0 32 26 58 58 58s58 -26 58 -58s-26 -58 -58 -58s-58 26 -58 58zM158 96c51 0 73 -14 88 -49l16 -39c0 -17 -2 -30 -7 -40c-3 -11 -10 -21 -19 -31c-17 -18 -49 -43 -84 -43 c-55 0 -77 13 -112 44c-24 21 -35 55 -35 100c0 46 14 81 32 112c30 52 71 79 137 93l36 6l26 2c154 0 235 -68 274 -182c11 -32 18 -68 18 -107c0 -103 -26 -182 -68 -250c-89 -145 -234 -230 -412 -288l-30 -5c-9 0 -14 3 -14 8c3 10 5 11 10 16c35 15 70 30 96 44l78 43 c96 57 162 136 197 258c9 33 17 60 22 100c3 22 5 35 6 39c-7 69 -16 115 -23 140s-4 22 -16 40c-8 12 -19 23 -31 34c-24 21 -62 44 -118 44c-48 0 -84 -8 -113 -28c-28 -19 -42 -44 -42 -73v-16c2 -5 3 -9 4 -11c24 22 52 39 84 39z" />
      </g>
      <g id="E084-r1ybgi5d">
         <path transform="scale(1,-1)" d="M20 -78c84 97 114 180 134 329h170c-13 -32 -82 -132 -99 -151l-84 -97c-33 -36 -59 -63 -80 -81h162v102l127 123v-225h57v-39h-57v-34c0 -43 19 -65 57 -65v-34h-244v36c48 0 60 26 60 70v27h-203v39z" />
      </g>
      <g id="E0A4-r1ybgi5d">
         <path transform="scale(1,-1)" d="M0 -39c0 68 73 172 200 172c66 0 114 -37 114 -95c0 -84 -106 -171 -218 -171c-64 0 -96 30 -96 94z" />
      </g>
   </defs>
   <style type="text/css">#r1ybgi5d g.ending, #r1ybgi5d g.fing, #r1ybgi5d g.reh, #r1ybgi5d g.tempo {font-weight:bold;}#r1ybgi5d g.dir, #r1ybgi5d g.dynam, #r1ybgi5d g.mNum {font-style:italic;}#r1ybgi5d g.label {font-weight:normal;}#r1ybgi5d ellipse, #r1ybgi5d path, #r1ybgi5d polygon, #r1ybgi5d polyline, #r1ybgi5d rect {stroke:currentColor}</style>
   <svg class="definition-scale" color="black" font-family="Times, serif" viewBox="0 0 7240 2680">
      <g class="page-margin" transform="translate(100, 100)">
         <g id="bk60bx3" class="mdiv pageMilestone" />
         <g id="c1t8uwj3" class="score pageMilestone" />
         <g id="hcx491w" class="system">
            <g id="e6h8h84" class="section systemMilestone" />
            <g id="b16teob9" class="section systemMilestone" />
            <g id="rrlo7wa" class="measure">
               <g id="ao5rild" class="staff">
                  <path d="M0 816 L4090 816" stroke-width="13" />
                  <path d="M0 996 L4090 996" stroke-width="13" />
                  <path d="M0 1176 L4090 1176" stroke-width="13" />
                  <path d="M0 1356 L4090 1356" stroke-width="13" />
                  <path d="M0 1536 L4090 1536" stroke-width="13" />
                  <g id="vfysztx" class="clef">
                     <use xlink:href="#E062-r1ybgi5d" transform="translate(88, 996) scale(0.72, 0.72)" />
                  </g>
                  <g id="w1yptbva" class="keySig" />
                  <g id="x1v2k6ol" class="meterSig">
                     <use xlink:href="#E084-r1ybgi5d" transform="translate(755, 996) scale(0.72, 0.72)" />
                     <use xlink:href="#E084-r1ybgi5d" transform="translate(755, 1356) scale(0.72, 0.72)" />
                  </g>
                  <g class="ledgerLines below">
                     <path d="M1269 1716 L1591 1716" stroke-width="22" />
                     <path d="M1269 1896 L1591 1896" stroke-width="22" />
                  </g>
                  <g id="b1pjazk" class="layer">
                     <g id="c1mdbll4" class="note">
                        <g class="notehead">
                           <use xlink:href="#E0A4-r1ybgi5d" transform="translate(1317, 1986) scale(0.72, 0.72)" />
                        </g>
                        <g id="sn2ilzl" class="stem">
                           <path d="M1534 1958 L1534 1176" stroke-width="18" />
                        </g>
                        <g id="d1a8qjzr" class="accid" />
                        <g id="efzdjfn" class="verse">
                           <g id="f1gkidvq" class="syl">
                              <text x="1227" y="2393" font-size="0px">
                                 <tspan id="g19cce1l" class="text">
                                    <tspan font-size="405px">1</tspan>
                                 </tspan>
                              </text>
                           </g>
                        </g>
                     </g>
                     <g id="h112qvp6" class="note">
                        <g class="notehead">
                           <use xlink:href="#E0A4-r1ybgi5d" transform="translate(2007, 1356) scale(0.72, 0.72)" />
                        </g>
                        <g id="t31vaeb" class="stem">
                           <path d="M2224 1328 L2224 726" stroke-width="18" />
                        </g>
                        <g id="iwiv93p" class="accid" />
                        <g id="jmddr9b" class="verse">
                           <g id="k1ggg2jj" class="syl">
                              <text x="1917" y="2393" font-size="0px">
                                 <tspan id="ly53ewj" class="text">
                                    <tspan font-size="405px">2</tspan>
                                 </tspan>
                              </text>
                           </g>
                        </g>
                     </g>
                     <g id="mbm7nl2" class="note">
                        <g class="notehead">
                           <use xlink:href="#E0A4-r1ybgi5d" transform="translate(2697, 996) scale(0.72, 0.72)" />
                        </g>
                        <g id="u279dp1" class="stem">
                           <path d="M2706 1024 L2706 1626" stroke-width="18" />
                        </g>
                        <g id="n58c8tf" class="accid" />
                        <g id="o124jkyh" class="verse">
                           <g id="pgq4hlc" class="syl">
                              <text x="2607" y="2393" font-size="0px">
                                 <tspan id="q1yewhbi" class="text">
                                    <tspan font-size="405px">3</tspan>
                                 </tspan>
                              </text>
                           </g>
                        </g>
                     </g>
                     <g id="r105mhd" class="note">
                        <g class="notehead">
                           <use xlink:href="#E0A4-r1ybgi5d" transform="translate(3387, 726) scale(0.72, 0.72)" />
                        </g>
                        <g id="vi9ranx" class="stem">
                           <path d="M3396 754 L3396 1356" stroke-width="18" />
                        </g>
                        <g id="s1blgi4y" class="accid" />
                        <g id="td66pco" class="verse">
                           <g id="uuq0i8u" class="syl">
                              <text x="3297" y="2393" font-size="0px">
                                 <tspan id="vbn6673" class="text">
                                    <tspan font-size="405px">4</tspan>
                                 </tspan>
                              </text>
                           </g>
                        </g>
                     </g>
                  </g>
               </g>
               <g id="z17jxzbg" class="barLine">
                  <path d="M4077 816 L4077 1536" stroke-width="27" />
               </g>
            </g>
            <g id="w16bf1md" class="measure">
               <g id="f111j3nf" class="staff">
                  <path d="M4090 816 L7043 816" stroke-width="13" />
                  <path d="M4090 996 L7043 996" stroke-width="13" />
                  <path d="M4090 1176 L7043 1176" stroke-width="13" />
                  <path d="M4090 1356 L7043 1356" stroke-width="13" />
                  <path d="M4090 1536 L7043 1536" stroke-width="13" />
                  <g class="ledgerLines above">
                     <path d="M4222 636 L4544 636" stroke-width="22" />
                     <path d="M4912 636 L5234 636" stroke-width="22" />
                     <path d="M5602 636 L5924 636" stroke-width="22" />
                     <path d="M6292 636 L6614 636" stroke-width="22" />
                     <path d="M4912 456 L5234 456" stroke-width="22" />
                     <path d="M5602 456 L5924 456" stroke-width="22" />
                     <path d="M6292 456 L6614 456" stroke-width="22" />
                     <path d="M5602 276 L5924 276" stroke-width="22" />
                     <path d="M6292 276 L6614 276" stroke-width="22" />
                     <path d="M6292 96 L6614 96" stroke-width="22" />
                  </g>
                  <g id="g7h3uac" class="layer">
                     <g id="h1hrzxsq" class="note">
                        <g class="notehead">
                           <use xlink:href="#E0A4-r1ybgi5d" transform="translate(4270, 546) scale(0.72, 0.72)" />
                        </g>
                        <g id="w1bbww3v" class="stem">
                           <path d="M4279 574 L4279 1176" stroke-width="18" />
                        </g>
                        <g id="ivtyemu" class="accid" />
                        <g id="j7dnr9x" class="verse">
                           <g id="k1gsej6" class="syl">
                              <text x="4180" y="2393" font-size="0px">
                                 <tspan id="logh98i" class="text">
                                    <tspan font-size="405px">5</tspan>
                                 </tspan>
                              </text>
                           </g>
                        </g>
                     </g>
                     <g id="mjd6enn" class="note">
                        <g class="notehead">
                           <use xlink:href="#E0A4-r1ybgi5d" transform="translate(4960, 366) scale(0.72, 0.72)" />
                        </g>
                        <g id="xwoxoqt" class="stem">
                           <path d="M4969 394 L4969 1176" stroke-width="18" />
                        </g>
                        <g id="npx65kc" class="accid" />
                        <g id="ocosa39" class="verse">
                           <g id="p1o9v56z" class="syl">
                              <text x="4870" y="2393" font-size="0px">
                                 <tspan id="q16p3tw8" class="text">
                                    <tspan font-size="405px">6</tspan>
                                 </tspan>
                              </text>
                           </g>
                        </g>
                     </g>
                     <g id="r1vn697c" class="note">
                        <g class="notehead">
                           <use xlink:href="#E0A4-r1ybgi5d" transform="translate(5650, 186) scale(0.72, 0.72)" />
                        </g>
                        <g id="y18zrejd" class="stem">
                           <path d="M5659 214 L5659 1176" stroke-width="18" />
                        </g>
                        <g id="srzhhax" class="accid" />
                        <g id="twxnh5u" class="verse">
                           <g id="u172kc8" class="syl">
                              <text x="5560" y="2393" font-size="0px">
                                 <tspan id="v1hpxiah" class="text">
                                    <tspan font-size="405px">7</tspan>
                                 </tspan>
                              </text>
                           </g>
                        </g>
                     </g>
                     <g id="w17dowei" class="note">
                        <g class="notehead">
                           <use xlink:href="#E0A4-r1ybgi5d" transform="translate(6340, 96) scale(0.72, 0.72)" />
                        </g>
                        <g id="zl2h7sy" class="stem">
                           <path d="M6349 124 L6349 1176" stroke-width="18" />
                        </g>
                        <g id="x1syxdlt" class="accid" />
                        <g id="yw824du" class="verse">
                           <g id="zem93k0" class="syl">
                              <text x="6250" y="2393" font-size="0px">
                                 <tspan id="anq1p2g" class="text">
                                    <tspan font-size="405px">8</tspan>
                                 </tspan>
                              </text>
                           </g>
                        </g>
                     </g>
                  </g>
               </g>
               <g id="e1wwaswa" class="barLine">
                  <path d="M7030 816 L7030 1536" stroke-width="27" />
               </g>
            </g>
            <g id="k12fuvzv" class="systemMilestoneEnd b16teob9" />
            <g id="lvvtjmm" class="systemMilestoneEnd e6h8h84" />
         </g>
         <g id="m1utxgym" class="pageMilestoneEnd c1t8uwj3" />
         <g id="n101frm4" class="pageMilestoneEnd bk60bx3" />
      </g>
   </svg>
</svg>
