<svg width="216" height="84" viewBox="0 0 216 84" version="1.1" xmlns="http://www.w3.org/2000/svg" xmlns:xlink="http://www.w3.org/1999/xlink" overflow="visible" id="c1yadte">
   <desc>Engraved by Verovio 6.2.0-43f8060</desc>
   <defs>
      <g id="E062-c1yadte">
         <path transform="scale(1,-1)" d="M582 -120c0 32 26 58 58 58s58 -26 58 -58s-26 -58 -58 -58s-58 26 -58 58zM582 120c0 32 26 58 58 58s58 -26 58 -58s-26 -58 -58 -58s-58 26 -58 58zM158 96c51 0 73 -14 88 -49l16 -39c0 -17 -2 -30 -7 -40c-3 -11 -10 -21 -19 -31c-17 -18 -49 -43 -84 -43 c-55 0 -77 13 -112 44c-24 21 -35 55 -35 100c0 46 14 81 32 112c30 52 71 79 137 93l36 6l26 2c154 0 235 -68 274 -182c11 -32 18 -68 18 -107c0 -103 -26 -182 -68 -250c-89 -145 -234 -230 -412 -288l-30 -5c-9 0 -14 3 -14 8c3 10 5 11 10 16c35 15 70 30 96 44l78 43 c96 57 162 136 197 258c9 33 17 60 22 100c3 22 5 35 6 39c-7 69 -16 115 -23 140s-4 22 -16 40c-8 12 -19 23 -31 34c-24 21 -62 44 -118 44c-48 0 -84 -8 -113 -28c-28 -19 -42 -44 -42 -73v-16c2 -5 3 -9 4 -11c24 22 52 39 84 39z" />
      </g>
      <g id="E084-c1yadte">
         <path transform="scale(1,-1)" d="M20 -78c84 97 114 180 134 329h170c-13 -32 -82 -132 -99 -151l-84 -97c-33 -36 -59 -63 -80 -81h162v102l127 123v-225h57v-39h-57v-34c0 -43 19 -65 57 -65v-34h-244v36c48 0 60 26 60 70v27h-203v39z" />
      </g>
      <g id="E0A4-c1yadte">
         <path transform="scale(1,-1)" d="M0 -39c0 68 73 172 200 172c66 0 114 -37 114 -95c0 -84 -106 -171 -218 -171c-64 0 -96 30 -96 94z" />
      </g>
      <g id="E4A2-c1yadte">
         <path transform="scale(1,-1)" d="M0 48c0 26 22 48 48 48s48 -22 48 -48s-22 -48 -48 -48s-48 22 -48 48z" />
      </g>
   </defs>
   <style type="text/css">#c1yadte g.ending, #c1yadte g.fing, #c1yadte g.reh, #c1yadte g.tempo {font-weight:bold;}#c1yadte g.dir, #c1yadte g.dynam, #c1yadte g.mNum {font-style:italic;}#c1yadte g.label {font-weight:normal;}#c1yadte ellipse, #c1yadte path, #c1yadte polygon, #c1yadte polyline, #c1yadte rect {stroke:currentColor}</style>
   <svg class="definition-scale" color="black" font-family="Times, serif" viewBox="0 0 5130 2000">
      <g class="page-margin" transform="translate(100, 100)">
         <g id="m4ud6lt" class="mdiv pageMilestone" />
         <g id="n1y2yhx4" class="score pageMilestone" />
         <g id="t1ysa582" class="system">
            <g id="p3sm0ie" class="section systemMilestone" />
            <g id="n1l9l45v" class="section systemMilestone" />
            <g id="casd445" class="measure">
               <g id="lpn9tkb" class="staff">
                  <path d="M0 540 L4930 540" stroke-width="13" />
                  <path d="M0 720 L4930 720" stroke-width="13" />
                  <path d="M0 900 L4930 900" stroke-width="13" />
                  <path d="M0 1080 L4930 1080" stroke-width="13" />
                  <path d="M0 1260 L4930 1260" stroke-width="13" />
                  <g id="f1aekv75" class="clef">
                     <use xlink:href="#E062-c1yadte" transform="translate(88, 720) scale(0.72, 0.72)" />
                  </g>
                  <g id="g1uzfpar" class="keySig" />
                  <g id="hfhz8hx" class="meterSig">
                     <use xlink:href="#E084-c1yadte" transform="translate(755, 720) scale(0.72, 0.72)" />
                     <use xlink:href="#E084-c1yadte" transform="translate(755, 1080) scale(0.72, 0.72)" />
                  </g>
                  <g class="ledgerLines above">
                     <path d="M4419 360 L4741 360" stroke-width="22" />
                  </g>
                  <g id="m1gngn9s" class="layer">
                     <g id="n1es4fwc" class="beam">
                        <polygon points="1317,1530 2685,1350 2685,1260 1317,1440" />
                        <g id="oardbts" class="note">
                           <g class="notehead">
                              <use xlink:href="#E0A4-c1yadte" transform="translate(1317, 990) scale(0.72, 0.72)" />
                           </g>
                           <g id="c1059cq1" class="stem">
                              <path d="M1326 1018 L1326 1512" stroke-width="18" />
                           </g>
                           <g id="p1rpqsqc" class="accid" />
                           <g id="qwivnl" class="artic">
                              <use xlink:href="#E4A2-c1yadte" transform="translate(1396, 844) scale(0.72, 0.72)" />
                           </g>
                        </g>
                        <g id="reuuxp6" class="note">
                           <g class="notehead">
                              <use xlink:href="#E0A4-c1yadte" transform="translate(1767, 900) scale(0.72, 0.72)" />
                           </g>
                           <g id="dcv8uw9" class="stem">
                              <path d="M1776 928 L1776 1452" stroke-width="18" />
                           </g>
                           <g id="s1a7i6mf" class="accid" />
                           <g id="tklh0ur" class="artic">
                              <use xlink:href="#E4A2-c1yadte" transform="translate(1846, 664) scale(0.72, 0.72)" />
                           </g>
                        </g>
                        <g id="ulko1gu" class="note">
                           <g class="notehead">
                              <use xlink:href="#E0A4-c1yadte" transform="translate(2217, 810) scale(0.72, 0.72)" />
                           </g>
                           <g id="e17rnwbk" class="stem">
                              <path d="M2226 838 L2226 1392" stroke-width="18" />
                           </g>
                           <g id="vg0cxvo" class="accid" />
                           <g id="w1c13te3" class="artic">
                              <use xlink:href="#E4A2-c1yadte" transform="translate(2296, 664) scale(0.72, 0.72)" />
                           </g>
                        </g>
                        <g id="x11crpr9" class="note">
                           <g class="notehead">
                              <use xlink:href="#E0A4-c1yadte" transform="translate(2667, 720) scale(0.72, 0.72)" />
                           </g>
                           <g id="f1owzm0v" class="stem">
                              <path d="M2676 748 L2676 1332" stroke-width="18" />
                           </g>
                           <g id="yl7ziup" class="accid" />
                           <g id="z1r79rx4" class="artic">
                              <use xlink:href="#E4A2-c1yadte" transform="translate(2746, 484) scale(0.72, 0.72)" />
                           </g>
                        </g>
                     </g>
                     <g id="a1y1yxe4" class="beam">
                        <polygon points="3117,1260 4485,1080 4485,990 3117,1170" />
                        <g id="b1el83i3" class="note">
                           <g class="notehead">
                              <use xlink:href="#E0A4-c1yadte" transform="translate(3117, 630) scale(0.72, 0.72)" />
                           </g>
                           <g id="gwtb388" class="stem">
                              <path d="M3126 658 L3126 1242" stroke-width="18" />
                           </g>
                           <g id="c19j62ya" class="accid" />
                           <g id="d1actens" class="artic">
                              <use xlink:href="#E4A2-c1yadte" transform="translate(3196, 484) scale(0.72, 0.72)" />
                           </g>
                        </g>
                        <g id="e16eszzf" class="note">
                           <g class="notehead">
                              <use xlink:href="#E0A4-c1yadte" transform="translate(3567, 540) scale(0.72, 0.72)" />
                           </g>
                           <g id="hmdfnh5" class="stem">
                              <path d="M3576 568 L3576 1182" stroke-width="18" />
                           </g>
                           <g id="f19gm86w" class="accid" />
                           <g id="g130quvo" class="artic">
                              <use xlink:href="#E4A2-c1yadte" transform="translate(3646, 417) scale(0.72, 0.72)" />
                           </g>
                        </g>
                        <g id="h1dqdl16" class="note">
                           <g class="notehead">
                              <use xlink:href="#E0A4-c1yadte" transform="translate(4017, 450) scale(0.72, 0.72)" />
                           </g>
                           <g id="i1hqnnj7" class="stem">
                              <path d="M4026 478 L4026 1122" stroke-width="18" />
                           </g>
                           <g id="in1czvj" class="accid" />
                           <g id="j1x4m2eu" class="artic">
                              <use xlink:href="#E4A2-c1yadte" transform="translate(4096, 327) scale(0.72, 0.72)" />
                           </g>
                        </g>
                        <g id="k1t66yr" class="note">
                           <g class="notehead">
                              <use xlink:href="#E0A4-c1yadte" transform="translate(4467, 360) scale(0.72, 0.72)" />
                           </g>
                           <g id="j15bex9p" class="stem">
                              <path d="M4476 388 L4476 1062" stroke-width="18" />
                           </g>
                           <g id="lqfibw2" class="accid" />
                           <g id="mdz0j41" class="artic">
                              <use xlink:href="#E4A2-c1yadte" transform="translate(4546, 237) scale(0.72, 0.72)" />
                           </g>
                        </g>
                     </g>
                  </g>
               </g>
               <g id="k8zqtic" class="barLine">
                  <path d="M4917 540 L4917 1260" stroke-width="27" />
               </g>
            </g>
            <g id="w124g37e" class="systemMilestoneEnd n1l9l45v" />
            <g id="x13f0u1h" class="systemMilestoneEnd p3sm0ie" />
         </g>
         <g id="yvgujgb" class="pageMilestoneEnd n1y2yhx4" />
         <g id="z63izha" class="pageMilestoneEnd m4ud6lt" />
      </g>
   </svg>
</svg>
