<svg viewBox="0 0 226 84" version="1.1" xmlns="http://www.w3.org/2000/svg" xmlns:xlink="http://www.w3.org/1999/xlink" overflow="visible" id="bvahoip">
   <desc>Engraved by Verovio 6.2.0-43f8060</desc>
   <defs>
      <g id="E050-bvahoip">
         <path transform="scale(1,-1)" d="M441 -245c-23 -4 -48 -6 -76 -6c-59 0 -102 7 -130 20c-88 42 -150 93 -187 154c-26 44 -43 103 -48 176c0 6 -1 13 -1 19c0 54 15 111 45 170c29 57 65 106 110 148s96 85 153 127c-3 16 -8 46 -13 92c-4 43 -5 73 -5 89c0 117 16 172 69 257c34 54 64 82 89 82 c21 0 43 -30 69 -92s39 -115 41 -159v-15c0 -109 -21 -162 -67 -241c-13 -20 -63 -90 -98 -118c-13 -9 -25 -19 -37 -29l31 -181c8 1 18 2 28 2c58 0 102 -12 133 -35c59 -43 92 -104 98 -184c1 -7 1 -15 1 -22c0 -123 -87 -209 -181 -248c8 -57 17 -110 25 -162 c5 -31 6 -58 6 -80c0 -30 -5 -53 -14 -70c-35 -64 -88 -99 -158 -103c-5 0 -11 -1 -16 -1c-37 0 -72 10 -108 27c-50 24 -77 59 -80 105v11c0 29 7 55 20 76c18 28 45 42 79 44h6c49 0 93 -42 97 -87v-9c0 -51 -34 -86 -105 -106c17 -24 51 -36 102 -36c62 0 116 43 140 85 c9 16 13 41 13 74c0 20 -1 42 -5 67c-8 53 -18 106 -26 159zM461 939c-95 0 -135 -175 -135 -286c0 -24 2 -48 5 -71c50 39 92 82 127 128c40 53 60 100 60 140v8c-4 53 -22 81 -55 81h-2zM406 119l54 -326c73 25 110 78 110 161c0 7 0 15 -1 23c-7 95 -57 142 -151 142h-12 zM382 117c-72 -2 -128 -47 -128 -120v-7c2 -46 43 -99 75 -115c-3 -2 -7 -5 -10 -10c-70 33 -116 88 -123 172v11c0 68 44 126 88 159c23 17 49 29 78 36l-29 170c-21 -13 -52 -37 -92 -73c-50 -44 -86 -84 -109 -119c-45 -69 -67 -130 -67 -182v-13c5 -68 35 -127 93 -176 s125 -73 203 -73c25 0 50 3 75 9c-19 111 -36 221 -54 331z" />
      </g>
      <g id="E084-bvahoip">
         <path transform="scale(1,-1)" d="M20 -78c84 97 114 180 134 329h170c-13 -32 -82 -132 -99 -151l-84 -97c-33 -36 -59 -63 -80 -81h162v102l127 123v-225h57v-39h-57v-34c0 -43 19 -65 57 -65v-34h-244v36c48 0 60 26 60 70v27h-203v39z" />
      </g>
      <g id="E0A4-bvahoip">
         <path transform="scale(1,-1)" d="M0 -39c0 68 73 172 200 172c66 0 114 -37 114 -95c0 -84 -106 -171 -218 -171c-64 0 -96 30 -96 94z" />
      </g>
      <g id="E240-bvahoip">
         <path transform="scale(1,-1)" d="M179 -646c15 29 29 55 46 102c18 49 30 108 30 138c0 105 -80 173 -168 200c-18 5 -47 9 -87 16v190h22c8 0 33 -61 71 -95c4 -3 -2 3 61 -56c62 -58 122 -137 122 -241c0 -38 -13 -106 -35 -163c-20 -51 -43 -99 -66 -132c-6 -5 -10 -7 -13 -7s-5 2 -5 5l4 10 c1 3 14 25 18 33z" />
      </g>
      <g id="E4A3-bvahoip">
         <path transform="scale(1,-1)" d="M0 -48c0 26 22 48 48 48s48 -22 48 -48s-22 -48 -48 -48s-48 22 -48 48z" />
      </g>
      <g id="E241-bvahoip">
         <path transform="scale(1,-1)" d="M179 646c-4 8 -17 30 -18 33l-4 10c0 3 2 5 5 5s7 -2 13 -7c23 -33 46 -81 66 -132c22 -57 35 -125 35 -163c0 -104 -60 -183 -122 -241c-63 -59 -57 -53 -61 -56c-38 -34 -63 -95 -71 -95h-22v190c40 7 69 11 87 16c88 27 168 95 168 200c0 30 -12 89 -30 138 c-17 47 -31 73 -46 102z" />
      </g>
      <g id="E4A2-bvahoip">
         <path transform="scale(1,-1)" d="M0 48c0 26 22 48 48 48s48 -22 48 -48s-22 -48 -48 -48s-48 22 -48 48z" />
      </g>
   </defs>
   <style type="text/css">#bvahoip g.ending, #bvahoip g.fing, #bvahoip g.reh, #bvahoip g.tempo {font-weight:bold;}#bvahoip g.dir, #bvahoip g.dynam, #bvahoip g.mNum {font-style:italic;}#bvahoip g.label {font-weight:normal;}#bvahoip ellipse, #bvahoip path, #bvahoip polygon, #bvahoip polyline, #bvahoip rect {stroke:currentColor}</style>
   <svg class="definition-scale" color="black" font-family="Times, serif" viewBox="0 0 5370 2000">
      <g class="page-margin" transform="translate(100, 100)">
         <g id="l1ndm3dr" class="mdiv pageMilestone" />
         <g id="moljam" class="score pageMilestone" />
         <g id="q5sqk5v" class="system">
            <g id="ovra3hy" class="section systemMilestone" />
            <g id="kmm2ycx" class="section systemMilestone" />
            <g id="b1et8iow" class="measure">
               <g id="k11ccw2d" class="staff">
                  <path d="M0 540 L5172 540" stroke-width="13" />
                  <path d="M0 720 L5172 720" stroke-width="13" />
                  <path d="M0 900 L5172 900" stroke-width="13" />
                  <path d="M0 1080 L5172 1080" stroke-width="13" />
                  <path d="M0 1260 L5172 1260" stroke-width="13" />
                  <g id="k1bqkn" class="clef">
                     <use xlink:href="#E050-bvahoip" transform="translate(90, 1080) scale(0.72, 0.72)" />
                  </g>
                  <g id="l1pi7pp1" class="keySig" />
                  <g id="m1piy853" class="meterSig">
                     <use xlink:href="#E084-bvahoip" transform="translate(721, 720) scale(0.72, 0.72)" />
                     <use xlink:href="#E084-bvahoip" transform="translate(721, 1080) scale(0.72, 0.72)" />
                  </g>
                  <g class="ledgerLines below">
                     <path d="M1235 1440 L1557 1440" stroke-width="22" />
                  </g>
                  <g id="l1l235bk" class="layer">
                     <g id="m1ed8wa9" class="note">
                        <g class="notehead">
                           <use xlink:href="#E0A4-bvahoip" transform="translate(1283, 1440) scale(0.72, 0.72)" />
                        </g>
                        <g id="z1dl5joo" class="stem">
                           <path d="M1500 1412 L1500 810" stroke-width="18" />
                           <g id="a1e6xg66" class="flag">
                              <use xlink:href="#E240-bvahoip" transform="translate(1491, 810) scale(0.72, 0.72)" />
                           </g>
                        </g>
                        <g id="nh1o8g1" class="accid" />
                        <g id="oofn10p" class="artic">
                           <use xlink:href="#E4A3-bvahoip" transform="translate(1362, 1563) scale(0.72, 0.72)" />
                        </g>
                     </g>
                     <g id="p1mwqapm" class="note">
                        <g class="notehead">
                           <use xlink:href="#E0A4-bvahoip" transform="translate(1779, 1350) scale(0.72, 0.72)" />
                        </g>
                        <g id="b1ualbxw" class="stem">
                           <path d="M1996 1322 L1996 720" stroke-width="18" />
                           <g id="c1qhdhfj" class="flag">
                              <use xlink:href="#E240-bvahoip" transform="translate(1987, 720) scale(0.72, 0.72)" />
                           </g>
                        </g>
                        <g id="q5jlst2" class="accid" />
                        <g id="r1n3pkbd" class="artic">
                           <use xlink:href="#E4A3-bvahoip" transform="translate(1858, 1473) scale(0.72, 0.72)" />
                        </g>
                     </g>
                     <g id="siy2skv" class="note">
                        <g class="notehead">
                           <use xlink:href="#E0A4-bvahoip" transform="translate(2275, 1260) scale(0.72, 0.72)" />
                        </g>
                        <g id="doieipu" class="stem">
                           <path d="M2492 1232 L2492 630" stroke-width="18" />
                           <g id="e1fdsyjm" class="flag">
                              <use xlink:href="#E240-bvahoip" transform="translate(2483, 630) scale(0.72, 0.72)" />
                           </g>
                        </g>
                        <g id="trowrgm" class="accid" />
                        <g id="uu62woc" class="artic">
                           <use xlink:href="#E4A3-bvahoip" transform="translate(2354, 1383) scale(0.72, 0.72)" />
                        </g>
                     </g>
                     <g id="vb5lb4x" class="note">
                        <g class="notehead">
                           <use xlink:href="#E0A4-bvahoip" transform="translate(2771, 1170) scale(0.72, 0.72)" />
                        </g>
                        <g id="fa65tqa" class="stem">
                           <path d="M2988 1142 L2988 540" stroke-width="18" />
                           <g id="girr3ka" class="flag">
                              <use xlink:href="#E240-bvahoip" transform="translate(2979, 540) scale(0.72, 0.72)" />
                           </g>
                        </g>
                        <g id="wrxezn9" class="accid" />
                        <g id="xvxg9ii" class="artic">
                           <use xlink:href="#E4A3-bvahoip" transform="translate(2850, 1316) scale(0.72, 0.72)" />
                        </g>
                     </g>
                     <g id="y28nft0" class="note">
                        <g class="notehead">
                           <use xlink:href="#E0A4-bvahoip" transform="translate(3267, 1080) scale(0.72, 0.72)" />
                        </g>
                        <g id="h4pk3i7" class="stem">
                           <path d="M3484 1052 L3484 450" stroke-width="18" />
                           <g id="i1xkcy9w" class="flag">
                              <use xlink:href="#E240-bvahoip" transform="translate(3475, 450) scale(0.72, 0.72)" />
                           </g>
                        </g>
                        <g id="z1ltmq5n" class="accid" />
                        <g id="akk6wgy" class="artic">
                           <use xlink:href="#E4A3-bvahoip" transform="translate(3346, 1316) scale(0.72, 0.72)" />
                        </g>
                     </g>
                     <g id="bk1op7m" class="note">
                        <g class="notehead">
                           <use xlink:href="#E0A4-bvahoip" transform="translate(3763, 990) scale(0.72, 0.72)" />
                        </g>
                        <g id="j18z8dsf" class="stem">
                           <path d="M3980 962 L3980 360" stroke-width="18" />
                           <g id="k1pewrzw" class="flag">
                              <use xlink:href="#E240-bvahoip" transform="translate(3971, 360) scale(0.72, 0.72)" />
                           </g>
                        </g>
                        <g id="c1908lx8" class="accid" />
                        <g id="d1xp29rk" class="artic">
                           <use xlink:href="#E4A3-bvahoip" transform="translate(3842, 1136) scale(0.72, 0.72)" />
                        </g>
                     </g>
                     <g id="e8x1k8s" class="note">
                        <g class="notehead">
                           <use xlink:href="#E0A4-bvahoip" transform="translate(4259, 900) scale(0.72, 0.72)" />
                        </g>
                        <g id="l18gp6r0" class="stem">
                           <path d="M4268 928 L4268 1500" stroke-width="18" />
                           <g id="m1xez7ud" class="flag">
                              <use xlink:href="#E241-bvahoip" transform="translate(4259, 1500) scale(0.72, 0.72)" />
                           </g>
                        </g>
                        <g id="f1yd04km" class="accid" />
                        <g id="g1166720" class="artic">
                           <use xlink:href="#E4A2-bvahoip" transform="translate(4338, 664) scale(0.72, 0.72)" />
                        </g>
                     </g>
                     <g id="h4jfmcx" class="note">
                        <g class="notehead">
                           <use xlink:href="#E0A4-bvahoip" transform="translate(4709, 810) scale(0.72, 0.72)" />
                        </g>
                        <g id="n8dlls8" class="stem">
                           <path d="M4718 838 L4718 1440" stroke-width="18" />
                           <g id="o15b28cm" class="flag">
                              <use xlink:href="#E241-bvahoip" transform="translate(4709, 1440) scale(0.72, 0.72)" />
                           </g>
                        </g>
                        <g id="ifv5vjv" class="accid" />
                        <g id="j7e1or0" class="artic">
                           <use xlink:href="#E4A2-bvahoip" transform="translate(4788, 664) scale(0.72, 0.72)" />
                        </g>
                     </g>
                  </g>
               </g>
               <g id="j1k893sj" class="barLine">
                  <path d="M5159 540 L5159 1260" stroke-width="27" />
               </g>
            </g>
            <g id="t1lhfrwv" class="systemMilestoneEnd kmm2ycx" />
            <g id="uz9g5vn" class="systemMilestoneEnd ovra3hy" />
         </g>
         <g id="va32p27" class="pageMilestoneEnd moljam" />
         <g id="w17uw2ug" class="pageMilestoneEnd l1ndm3dr" />
      </g>
   </svg>
</svg>
