<svg width="303" height="84" viewBox="0 0 303 84" version="1.1" xmlns="http://www.w3.org/2000/svg" xmlns:xlink="http://www.w3.org/1999/xlink" overflow="visible" id="e3gmecq">
   <desc>Engraved by Verovio 6.2.0-43f8060</desc>
   <defs>
      <g id="E050-e3gmecq">
         <path transform="scale(1,-1)" d="M441 -245c-23 -4 -48 -6 -76 -6c-59 0 -102 7 -130 20c-88 42 -150 93 -187 154c-26 44 -43 103 -48 176c0 6 -1 13 -1 19c0 54 15 111 45 170c29 57 65 106 110 148s96 85 153 127c-3 16 -8 46 -13 92c-4 43 -5 73 -5 89c0 117 16 172 69 257c34 54 64 82 89 82 c21 0 43 -30 69 -92s39 -115 41 -159v-15c0 -109 -21 -162 -67 -241c-13 -20 -63 -90 -98 -118c-13 -9 -25 -19 -37 -29l31 -181c8 1 18 2 28 2c58 0 102 -12 133 -35c59 -43 92 -104 98 -184c1 -7 1 -15 1 -22c0 -123 -87 -209 -181 -248c8 -57 17 -110 25 -162 c5 -31 6 -58 6 -80c0 -30 -5 -53 -14 -70c-35 -64 -88 -99 -158 -103c-5 0 -11 -1 -16 -1c-37 0 -72 10 -108 27c-50 24 -77 59 -80 105v11c0 29 7 55 20 76c18 28 45 42 79 44h6c49 0 93 -42 97 -87v-9c0 -51 -34 -86 -105 -106c17 -24 51 -36 102 -36c62 0 116 43 140 85 c9 16 13 41 13 74c0 20 -1 42 -5 67c-8 53 -18 106 -26 159zM461 939c-95 0 -135 -175 -135 -286c0 -24 2 -48 5 -71c50 39 92 82 127 128c40 53 60 100 60 140v8c-4 53 -22 81 -55 81h-2zM406 119l54 -326c73 25 110 78 110 161c0 7 0 15 -1 23c-7 95 -57 142 -151 142h-12 zM382 117c-72 -2 -128 -47 -128 -120v-7c2 -46 43 -99 75 -115c-3 -2 -7 -5 -10 -10c-70 33 -116 88 -123 172v11c0 68 44 126 88 159c23 17 49 29 78 36l-29 170c-21 -13 -52 -37 -92 -73c-50 -44 -86 -84 -109 -119c-45 -69 -67 -130 -67 -182v-13c5 -68 35 -127 93 -176 s125 -73 203 -73c25 0 50 3 75 9c-19 111 -36 221 -54 331z" />
      </g>
      <g id="E084-e3gmecq">
         <path transform="scale(1,-1)" d="M20 -78c84 97 114 180 134 329h170c-13 -32 -82 -132 -99 -151l-84 -97c-33 -36 -59 -63 -80 -81h162v102l127 123v-225h57v-39h-57v-34c0 -43 19 -65 57 -65v-34h-244v36c48 0 60 26 60 70v27h-203v39z" />
      </g>
      <g id="E0A4-e3gmecq">
         <path transform="scale(1,-1)" d="M0 -39c0 68 73 172 200 172c66 0 114 -37 114 -95c0 -84 -106 -171 -218 -171c-64 0 -96 30 -96 94z" />
      </g>
   </defs>
   <style type="text/css">#e3gmecq g.ending, #e3gmecq g.fing, #e3gmecq g.reh, #e3gmecq g.tempo {font-weight:bold;}#e3gmecq g.dir, #e3gmecq g.dynam, #e3gmecq g.mNum {font-style:italic;}#e3gmecq g.label {font-weight:normal;}#e3gmecq ellipse, #e3gmecq path, #e3gmecq polygon, #e3gmecq polyline, #e3gmecq rect {stroke:currentColor}</style>
   <svg class="definition-scale" color="black" font-family="Times, serif" viewBox="0 0 7200 2000">
      <g class="page-margin" transform="translate(100, 100)">
         <g id="o1v7853w" class="mdiv pageMilestone" />
         <g id="pbc62u2" class="score pageMilestone" />
         <g id="w1eeu1qh" class="system">
            <g id="rap2ntd" class="section systemMilestone" />
            <g id="qkq47k2" class="section systemMilestone" />
            <g id="e1tti3av" class="measure">
               <g id="nu1t7lk" class="staff">
                  <path d="M0 540 L4056 540" stroke-width="13" />
                  <path d="M0 720 L4056 720" stroke-width="13" />
                  <path d="M0 900 L4056 900" stroke-width="13" />
                  <path d="M0 1080 L4056 1080" stroke-width="13" />
                  <path d="M0 1260 L4056 1260" stroke-width="13" />
                  <g id="k1f9mc6h" class="clef">
                     <use xlink:href="#E050-e3gmecq" transform="translate(90, 1080) scale(0.72, 0.72)" />
                  </g>
                  <g id="l1einfty" class="keySig" />
                  <g id="mn2x4ss" class="meterSig">
                     <use xlink:href="#E084-e3gmecq" transform="translate(721, 720) scale(0.72, 0.72)" />
                     <use xlink:href="#E084-e3gmecq" transform="translate(721, 1080) scale(0.72, 0.72)" />
                  </g>
                  <g class="ledgerLines below">
                     <path d="M1235 1440 L1557 1440" stroke-width="22" />
                     <path d="M1925 1440 L2247 1440" stroke-width="22" />
                  </g>
                  <g id="o88g8nk" class="layer">
                     <g id="p1p84vzh" class="note">
                        <g class="notehead">
                           <use xlink:href="#E0A4-e3gmecq" transform="translate(1283, 1440) scale(0.72, 0.72)" />
                        </g>
                        <g id="h411nkw" class="stem">
                           <path d="M1500 1412 L1500 810" stroke-width="18" />
                        </g>
                        <g id="q15yw0nt" class="accid" />
                     </g>
                     <g id="rr0ad1r" class="note">
                        <g class="notehead">
                           <use xlink:href="#E0A4-e3gmecq" transform="translate(1973, 1440) scale(0.72, 0.72)" />
                        </g>
                        <g id="io3pz8s" class="stem">
                           <path d="M2190 1412 L2190 810" stroke-width="18" />
                        </g>
                        <g id="s178w9tf" class="accid" />
                     </g>
                     <g id="t1hloi8q" class="note">
                        <g class="notehead">
                           <use xlink:href="#E0A4-e3gmecq" transform="translate(2663, 1350) scale(0.72, 0.72)" />
                        </g>
                        <g id="j1i7pmse" class="stem">
                           <path d="M2880 1322 L2880 720" stroke-width="18" />
                        </g>
                        <g id="u1l5iqax" class="accid" />
                     </g>
                     <g id="v1rtvp2e" class="note">
                        <g class="notehead">
                           <use xlink:href="#E0A4-e3gmecq" transform="translate(3353, 1350) scale(0.72, 0.72)" />
                        </g>
                        <g id="k5qs3v2" class="stem">
                           <path d="M3570 1322 L3570 720" stroke-width="18" />
                        </g>
                        <g id="wjfx21q" class="accid" />
                     </g>
                  </g>
               </g>
               <g id="mx0kmy2" class="barLine">
                  <path d="M4043 540 L4043 1260" stroke-width="27" />
               </g>
            </g>
            <g id="x1ic9pwk" class="measure">
               <g id="g1iyz04h" class="staff">
                  <path d="M4056 540 L7009 540" stroke-width="13" />
                  <path d="M4056 720 L7009 720" stroke-width="13" />
                  <path d="M4056 900 L7009 900" stroke-width="13" />
                  <path d="M4056 1080 L7009 1080" stroke-width="13" />
                  <path d="M4056 1260 L7009 1260" stroke-width="13" />
                  <g id="hmz8dv0" class="layer">
                     <g id="ivdti7t" class="note">
                        <g class="notehead">
                           <use xlink:href="#E0A4-e3gmecq" transform="translate(4236, 1260) scale(0.72, 0.72)" />
                        </g>
                        <g id="l1vluuy5" class="stem">
                           <path d="M4453 1232 L4453 630" stroke-width="18" />
                        </g>
                        <g id="j7jzoyk" class="accid" />
                     </g>
                     <g id="k5pg0u0" class="note">
                        <g class="notehead">
                           <use xlink:href="#E0A4-e3gmecq" transform="translate(4926, 1170) scale(0.72, 0.72)" />
                        </g>
                        <g id="mny7iiv" class="stem">
                           <path d="M5143 1142 L5143 540" stroke-width="18" />
                        </g>
                        <g id="l1gc1822" class="accid" />
                     </g>
                     <g id="m1wt1e5n" class="note">
                        <g class="notehead">
                           <use xlink:href="#E0A4-e3gmecq" transform="translate(5616, 1170) scale(0.72, 0.72)" />
                        </g>
                        <g id="nk6tcvu" class="stem">
                           <path d="M5833 1142 L5833 540" stroke-width="18" />
                        </g>
                        <g id="n27ib3o" class="accid" />
                     </g>
                     <g id="o1gd4rqv" class="note">
                        <g class="notehead">
                           <use xlink:href="#E0A4-e3gmecq" transform="translate(6306, 1080) scale(0.72, 0.72)" />
                        </g>
                        <g id="o1114va7" class="stem">
                           <path d="M6523 1052 L6523 450" stroke-width="18" />
                        </g>
                        <g id="p1o191y0" class="accid" />
                     </g>
                  </g>
               </g>
               <g id="f17dwy5y" class="barLine">
                  <path d="M6996 540 L6996 1260" stroke-width="27" />
               </g>
            </g>
            <g id="z1faooa4" class="systemMilestoneEnd qkq47k2" />
            <g id="a19ee7dw" class="systemMilestoneEnd rap2ntd" />
         </g>
         <g id="b14vstdd" class="pageMilestoneEnd pbc62u2" />
         <g id="cgna9wx" class="pageMilestoneEnd o1v7853w" />
      </g>
   </svg>
</svg>
