<svg width="226" height="84" viewBox="0 0 226 84" version="1.1" xmlns="http://www.w3.org/2000/svg" xmlns:xlink="http://www.w3.org/1999/xlink" overflow="visible" id="a2y7rvu">
   <desc>Engraved by Verovio 6.2.0-43f8060</desc>
   <defs>
      <g id="E050-a2y7rvu">
         <path transform="scale(1,-1)" d="M441 -245c-23 -4 -48 -6 -76 -6c-59 0 -102 7 -130 20c-88 42 -150 93 -187 154c-26 44 -43 103 -48 176c0 6 -1 13 -1 19c0 54 15 111 45 170c29 57 65 106 110 148s96 85 153 127c-3 16 -8 46 -13 92c-4 43 -5 73 -5 89c0 117 16 172 69 257c34 54 64 82 89 82 c21 0 43 -30 69 -92s39 -115 41 -159v-15c0 -109 -21 -162 -67 -241c-13 -20 -63 -90 -98 -118c-13 -9 -25 -19 -37 -29l31 -181c8 1 18 2 28 2c58 0 102 -12 133 -35c59 -43 92 -104 98 -184c1 -7 1 -15 1 -22c0 -123 -87 -209 -181 -248c8 -57 17 -110 25 -162 c5 -31 6 -58 6 -80c0 -30 -5 -53 -14 -70c-35 -64 -88 -99 -158 -103c-5 0 -11 -1 -16 -1c-37 0 -72 10 -108 27c-50 24 -77 59 -80 105v11c0 29 7 55 20 76c18 28 45 42 79 44h6c49 0 93 -42 97 -87v-9c0 -51 -34 -86 -105 -106c17 -24 51 -36 102 -36c62 0 116 43 140 85 c9 16 13 41 13 74c0 20 -1 42 -5 67c-8 53 -18 106 -26 159zM461 939c-95 0 -135 -175 -135 -286c0 -24 2 -48 5 -71c50 39 92 82 127 128c40 53 60 100 60 140v8c-4 53 -22 81 -55 81h-2zM406 119l54 -326c73 25 110 78 110 161c0 7 0 15 -1 23c-7 95 -57 142 -151 142h-12 zM382 117c-72 -2 -128 -47 -128 -120v-7c2 -46 43 -99 75 -115c-3 -2 -7 -5 -10 -10c-70 33 -116 88 -123 172v11c0 68 44 126 88 159c23 17 49 29 78 36l-29 170c-21 -13 -52 -37 -92 -73c-50 -44 -86 -84 -109 -119c-45 -69 -67 -130 -67 -182v-13c5 -68 35 -127 93 -176 s125 -73 203 -73c25 0 50 3 75 9c-19 111 -36 221 -54 331z" />
      </g>
      <g id="E084-a2y7rvu">
         <path transform="scale(1,-1)" d="M20 -78c84 97 114 180 134 329h170c-13 -32 -82 -132 -99 -151l-84 -97c-33 -36 -59 -63 -80 -81h162v102l127 123v-225h57v-39h-57v-34c0 -43 19 -65 57 -65v-34h-244v36c48 0 60 26 60 70v27h-203v39z" />
      </g>
      <g id="E0A4-a2y7rvu">
         <path transform="scale(1,-1)" d="M0 -39c0 68 73 172 200 172c66 0 114 -37 114 -95c0 -84 -106 -171 -218 -171c-64 0 -96 30 -96 94z" />
      </g>
      <g id="E240-a2y7rvu">
         <path transform="scale(1,-1)" d="M179 -646c15 29 29 55 46 102c18 49 30 108 30 138c0 105 -80 173 -168 200c-18 5 -47 9 -87 16v190h22c8 0 33 -61 71 -95c4 -3 -2 3 61 -56c62 -58 122 -137 122 -241c0 -38 -13 -106 -35 -163c-20 -51 -43 -99 -66 -132c-6 -5 -10 -7 -13 -7s-5 2 -5 5l4 10 c1 3 14 25 18 33z" />
      </g>
      <g id="E4A3-a2y7rvu">
         <path transform="scale(1,-1)" d="M0 -48c0 26 22 48 48 48s48 -22 48 -48s-22 -48 -48 -48s-48 22 -48 48z" />
      </g>
      <g id="E241-a2y7rvu">
         <path transform="scale(1,-1)" d="M179 646c-4 8 -17 30 -18 33l-4 10c0 3 2 5 5 5s7 -2 13 -7c23 -33 46 -81 66 -132c22 -57 35 -125 35 -163c0 -104 -60 -183 -122 -241c-63 -59 -57 -53 -61 -56c-38 -34 -63 -95 -71 -95h-22v190c40 7 69 11 87 16c88 27 168 95 168 200c0 30 -12 89 -30 138 c-17 47 -31 73 -46 102z" />
      </g>
      <g id="E4A2-a2y7rvu">
         <path transform="scale(1,-1)" d="M0 48c0 26 22 48 48 48s48 -22 48 -48s-22 -48 -48 -48s-48 22 -48 48z" />
      </g>
   </defs>
   <style type="text/css">#a2y7rvu g.ending, #a2y7rvu g.fing, #a2y7rvu g.reh, #a2y7rvu g.tempo {font-weight:bold;}#a2y7rvu g.dir, #a2y7rvu g.dynam, #a2y7rvu g.mNum {font-style:italic;}#a2y7rvu g.label {font-weight:normal;}#a2y7rvu ellipse, #a2y7rvu path, #a2y7rvu polygon, #a2y7rvu polyline, #a2y7rvu rect {stroke:currentColor}</style>
   <svg class="definition-scale" color="black" font-family="Times, serif" viewBox="0 0 5370 2000">
      <g class="page-margin" transform="translate(100, 100)">
         <g id="kj8bp00" class="mdiv pageMilestone" />
         <g id="l1e57d0k" class="score pageMilestone" />
         <g id="p4m7ccf" class="system">
            <g id="n10up2li" class="section systemMilestone" />
            <g id="j18900br" class="section systemMilestone" />
            <g id="a11w2kr2" class="measure">
               <g id="j1yc4ctn" class="staff">
                  <path d="M0 540 L5172 540" stroke-width="13" />
                  <path d="M0 720 L5172 720" stroke-width="13" />
                  <path d="M0 900 L5172 900" stroke-width="13" />
                  <path d="M0 1080 L5172 1080" stroke-width="13" />
                  <path d="M0 1260 L5172 1260" stroke-width="13" />
                  <g id="jqq0dxs" class="clef">
                     <use xlink:href="#E050-a2y7rvu" transform="translate(90, 1080) scale(0.72, 0.72)" />
                  </g>
                  <g id="k1p5s0hp" class="keySig" />
                  <g id="lfgjvof" class="meterSig">
                     <use xlink:href="#E084-a2y7rvu" transform="translate(721, 720) scale(0.72, 0.72)" />
                     <use xlink:href="#E084-a2y7rvu" transform="translate(721, 1080) scale(0.72, 0.72)" />
                  </g>
                  <g class="ledgerLines below">
                     <path d="M1235 1440 L1557 1440" stroke-width="22" />
                  </g>
                  <g id="k1oc2pps" class="layer">
                     <g id="l1q2zspa" class="note">
                        <g class="notehead">
                           <use xlink:href="#E0A4-a2y7rvu" transform="translate(1283, 1440) scale(0.72, 0.72)" />
                        </g>
                        <g id="ysvuwjo" class="stem">
                           <path d="M1500 1412 L1500 810" stroke-width="18" />
                           <g id="z1dna4kl" class="flag">
                              <use xlink:href="#E240-a2y7rvu" transform="translate(1491, 810) scale(0.72, 0.72)" />
                           </g>
                        </g>
                        <g id="m15y32qh" class="accid" />
                        <g id="nf6s1ui" class="artic">
                           <use xlink:href="#E4A3-a2y7rvu" transform="translate(1362, 1563) scale(0.72, 0.72)" />
                        </g>
                     </g>
                     <g id="o1ud6vsz" class="note">
                        <g class="notehead">
                           <use xlink:href="#E0A4-a2y7rvu" transform="translate(1779, 1350) scale(0.72, 0.72)" />
                        </g>
                        <g id="a7xz0xi" class="stem">
                           <path d="M1996 1322 L1996 720" stroke-width="18" />
                           <g id="b10ez2y3" class="flag">
                              <use xlink:href="#E240-a2y7rvu" transform="translate(1987, 720) scale(0.72, 0.72)" />
                           </g>
                        </g>
                        <g id="pua2p1h" class="accid" />
                        <g id="q1xh4807" class="artic">
                           <use xlink:href="#E4A3-a2y7rvu" transform="translate(1858, 1473) scale(0.72, 0.72)" />
                        </g>
                     </g>
                     <g id="rp2xoro" class="note">
                        <g class="notehead">
                           <use xlink:href="#E0A4-a2y7rvu" transform="translate(2275, 1260) scale(0.72, 0.72)" />
                        </g>
                        <g id="ct7esy8" class="stem">
                           <path d="M2492 1232 L2492 630" stroke-width="18" />
                           <g id="dutfv6w" class="flag">
                              <use xlink:href="#E240-a2y7rvu" transform="translate(2483, 630) scale(0.72, 0.72)" />
                           </g>
                        </g>
                        <g id="smf07vw" class="accid" />
                        <g id="t1ch3n1m" class="artic">
                           <use xlink:href="#E4A3-a2y7rvu" transform="translate(2354, 1383) scale(0.72, 0.72)" />
                        </g>
                     </g>
                     <g id="uucts4c" class="note">
                        <g class="notehead">
                           <use xlink:href="#E0A4-a2y7rvu" transform="translate(2771, 1170) scale(0.72, 0.72)" />
                        </g>
                        <g id="e1lhkp5y" class="stem">
                           <path d="M2988 1142 L2988 540" stroke-width="18" />
                           <g id="f6bchu4" class="flag">
                              <use xlink:href="#E240-a2y7rvu" transform="translate(2979, 540) scale(0.72, 0.72)" />
                           </g>
                        </g>
                        <g id="v1nu9ss2" class="accid" />
                        <g id="wh2d26n" class="artic">
                           <use xlink:href="#E4A3-a2y7rvu" transform="translate(2850, 1316) scale(0.72, 0.72)" />
                        </g>
                     </g>
                     <g id="x1t5dsk8" class="note">
                        <g class="notehead">
                           <use xlink:href="#E0A4-a2y7rvu" transform="translate(3267, 1080) scale(0.72, 0.72)" />
                        </g>
                        <g id="glvopwj" class="stem">
                           <path d="M3484 1052 L3484 450" stroke-width="18" />
                           <g id="hpu0wzz" class="flag">
                              <use xlink:href="#E240-a2y7rvu" transform="translate(3475, 450) scale(0.72, 0.72)" />
                           </g>
                        </g>
                        <g id="ywf6brf" class="accid" />
                        <g id="z70u011" class="artic">
                           <use xlink:href="#E4A3-a2y7rvu" transform="translate(3346, 1316) scale(0.72, 0.72)" />
                        </g>
                     </g>
                     <g id="acrtj85" class="note">
                        <g class="notehead">
                           <use xlink:href="#E0A4-a2y7rvu" transform="translate(3763, 990) scale(0.72, 0.72)" />
                        </g>
                        <g id="i517ck2" class="stem">
                           <path d="M3980 962 L3980 360" stroke-width="18" />
                           <g id="jqhq2qc" class="flag">
                              <use xlink:href="#E240-a2y7rvu" transform="translate(3971, 360) scale(0.72, 0.72)" />
                           </g>
                        </g>
                        <g id="bkipsbw" class="accid" />
                        <g id="c1ega40v" class="artic">
                           <use xlink:href="#E4A3-a2y7rvu" transform="translate(3842, 1136) scale(0.72, 0.72)" />
                        </g>
                     </g>
                     <g id="dnivfdh" class="note">
                        <g class="notehead">
                           <use xlink:href="#E0A4-a2y7rvu" transform="translate(4259, 900) scale(0.72, 0.72)" />
                        </g>
                        <g id="k1vxudyd" class="stem">
                           <path d="M4268 928 L4268 1500" stroke-width="18" />
                           <g id="lfkjq0k" class="flag">
                              <use xlink:href="#E241-a2y7rvu" transform="translate(4259, 1500) scale(0.72, 0.72)" />
                           </g>
                        </g>
                        <g id="empy2t2" class="accid" />
                        <g id="f62anvg" class="artic">
                           <use xlink:href="#E4A2-a2y7rvu" transform="translate(4338, 664) scale(0.72, 0.72)" />
                        </g>
                     </g>
                     <g id="g8n7p01" class="note">
                        <g class="notehead">
                           <use xlink:href="#E0A4-a2y7rvu" transform="translate(4709, 810) scale(0.72, 0.72)" />
                        </g>
                        <g id="m10gfibt" class="stem">
                           <path d="M4718 838 L4718 1440" stroke-width="18" />
                           <g id="n18ivdv0" class="flag">
                              <use xlink:href="#E241-a2y7rvu" transform="translate(4709, 1440) scale(0.72, 0.72)" />
                           </g>
                        </g>
                        <g id="h1mtfmcs" class="accid" />
                        <g id="i16cluia" class="artic">
                           <use xlink:href="#E4A2-a2y7rvu" transform="translate(4788, 664) scale(0.72, 0.72)" />
                        </g>
                     </g>
                  </g>
               </g>
               <g id="ix6k2cr" class="barLine">
                  <path d="M5159 540 L5159 1260" stroke-width="27" />
               </g>
            </g>
            <g id="skxehjk" class="systemMilestoneEnd j18900br" />
            <g id="t124pni1" class="systemMilestoneEnd n10up2li" />
         </g>
         <g id="u1xzi4pj" class="pageMilestoneEnd l1e57d0k" />
         <g id="v1xq2uli" class="pageMilestoneEnd kj8bp00" />
      </g>
   </svg>
</svg>
