<svg viewBox="0 0 303 84" version="1.1" xmlns="http://www.w3.org/2000/svg" xmlns:xlink="http://www.w3.org/1999/xlink" overflow="visible" id="xc2ojlc">
   <desc>Engraved by Verovio 6.2.0-43f8060</desc>
   <defs>
      <g id="E050-xc2ojlc">
         <path transform="scale(1,-1)" d="M441 -245c-23 -4 -48 -6 -76 -6c-59 0 -102 7 -130 20c-88 42 -150 93 -187 154c-26 44 -43 103 -48 176c0 6 -1 13 -1 19c0 54 15 111 45 170c29 57 65 106 110 148s96 85 153 127c-3 16 -8 46 -13 92c-4 43 -5 73 -5 89c0 117 16 172 69 257c34 54 64 82 89 82 c21 0 43 -30 69 -92s39 -115 41 -159v-15c0 -109 -21 -162 -67 -241c-13 -20 -63 -90 -98 -118c-13 -9 -25 -19 -37 -29l31 -181c8 1 18 2 28 2c58 0 102 -12 133 -35c59 -43 92 -104 98 -184c1 -7 1 -15 1 -22c0 -123 -87 -209 -181 -248c8 -57 17 -110 25 -162 c5 -31 6 -58 6 -80c0 -30 -5 -53 -14 -70c-35 -64 -88 -99 -158 -103c-5 0 -11 -1 -16 -1c-37 0 -72 10 -108 27c-50 24 -77 59 -80 105v11c0 29 7 55 20 76c18 28 45 42 79 44h6c49 0 93 -42 97 -87v-9c0 -51 -34 -86 -105 -106c17 -24 51 -36 102 -36c62 0 116 43 140 85 c9 16 13 41 13 74c0 20 -1 42 -5 67c-8 53 -18 106 -26 159zM461 939c-95 0 -135 -175 -135 -286c0 -24 2 -48 5 -71c50 39 92 82 127 128c40 53 60 100 60 140v8c-4 53 -22 81 -55 81h-2zM406 119l54 -326c73 25 110 78 110 161c0 7 0 15 -1 23c-7 95 -57 142 -151 142h-12 zM382 117c-72 -2 -128 -47 -128 -120v-7c2 -46 43 -99 75 -115c-3 -2 -7 -5 -10 -10c-70 33 -116 88 -123 172v11c0 68 44 126 88 159c23 17 49 29 78 36l-29 170c-21 -13 -52 -37 -92 -73c-50 -44 -86 -84 -109 -119c-45 -69 -67 -130 -67 -182v-13c5 -68 35 -127 93 -176 s125 -73 203 -73c25 0 50 3 75 9c-19 111 -36 221 -54 331z" />
      </g>
      <g id="E084-xc2ojlc">
         <path transform="scale(1,-1)" d="M20 -78c84 97 114 180 134 329h170c-13 -32 -82 -132 -99 -151l-84 -97c-33 -36 -59 -63 -80 -81h162v102l127 123v-225h57v-39h-57v-34c0 -43 19 -65 57 -65v-34h-244v36c48 0 60 26 60 70v27h-203v39z" />
      </g>
      <g id="E0A4-xc2ojlc">
         <path transform="scale(1,-1)" d="M0 -39c0 68 73 172 200 172c66 0 114 -37 114 -95c0 -84 -106 -171 -218 -171c-64 0 -96 30 -96 94z" />
      </g>
      <g id="E4E5-xc2ojlc">
         <path transform="scale(1,-1)" d="M107 292c-13 24 -30 49 -52 71c-1 1 0 2 0 3l-2 2c3 3 4 4 6 4c12 0 26 -7 40 -20s44 -40 89 -81c26 -24 28 -29 46 -47c4 -4 8 -9 10 -14c6 -8 8 -16 8 -27c0 -19 -12 -40 -36 -61c-28 -23 -49 -38 -61 -73c-4 -11 -7 -27 -10 -50c13 -43 34 -83 59 -121 c31 -47 59 -79 101 -129c-8 0 -26 7 -54 20l-62 29l-21 6l-23 1c-25 0 -45 -10 -60 -30l-4 -14l-1 -12c0 -33 20 -56 39 -78c8 -9 17 -18 26 -26c17 -15 27 -24 28 -30l-3 -3c-11 5 -19 10 -25 15c-9 3 -37 21 -45 26c-24 14 -45 32 -63 51c-19 21 -37 44 -37 71 c0 63 27 95 80 95c41 0 86 -18 136 -52c-19 26 -37 48 -55 66c-23 23 -48 44 -73 65c-28 23 -47 40 -58 53s-17 26 -18 39c75 64 113 125 113 183c0 27 -7 48 -18 68z" />
      </g>
   </defs>
   <style type="text/css">#xc2ojlc g.ending, #xc2ojlc g.fing, #xc2ojlc g.reh, #xc2ojlc g.tempo {font-weight:bold;}#xc2ojlc g.dir, #xc2ojlc g.dynam, #xc2ojlc g.mNum {font-style:italic;}#xc2ojlc g.label {font-weight:normal;}#xc2ojlc ellipse, #xc2ojlc path, #xc2ojlc polygon, #xc2ojlc polyline, #xc2ojlc rect {stroke:currentColor}</style>
   <svg class="definition-scale" color="black" font-family="Times, serif" viewBox="0 0 7200 2000">
      <g class="page-margin" transform="translate(100, 100)">
         <g id="h1c1p53i" class="mdiv pageMilestone" />
         <g id="i1jx4qzs" class="score pageMilestone" />
         <g id="f9aosas" class="system">
            <g id="k1toalx" class="section systemMilestone" />
            <g id="z19b53h2" class="section systemMilestone" />
            <g id="x8h5u7" class="measure">
               <g id="gd7rk1g" class="staff">
                  <path d="M0 540 L4056 540" stroke-width="13" />
                  <path d="M0 720 L4056 720" stroke-width="13" />
                  <path d="M0 900 L4056 900" stroke-width="13" />
                  <path d="M0 1080 L4056 1080" stroke-width="13" />
                  <path d="M0 1260 L4056 1260" stroke-width="13" />
                  <g id="rt77sd2" class="clef">
                     <use xlink:href="#E050-xc2ojlc" transform="translate(90, 1080) scale(0.72, 0.72)" />
                  </g>
                  <g id="s1fnwpzj" class="keySig" />
                  <g id="tocbbmm" class="meterSig">
                     <use xlink:href="#E084-xc2ojlc" transform="translate(721, 720) scale(0.72, 0.72)" />
                     <use xlink:href="#E084-xc2ojlc" transform="translate(721, 1080) scale(0.72, 0.72)" />
                  </g>
                  <g class="ledgerLines below">
                     <path d="M1235 1440 L1557 1440" stroke-width="22" />
                  </g>
                  <g id="h1fnuxms" class="layer">
                     <g id="k1b5u049" class="chord">
                        <g id="q1xqu6f0" class="stem">
                           <path d="M1500 1412 L1500 630" stroke-width="18" />
                        </g>
                        <g id="i24k0ab" class="note">
                           <g class="notehead">
                              <use xlink:href="#E0A4-xc2ojlc" transform="translate(1283, 1440) scale(0.72, 0.72)" />
                           </g>
                           <g id="j9znvxi" class="accid" />
                        </g>
                        <g id="loywgle" class="note">
                           <g class="notehead">
                              <use xlink:href="#E0A4-xc2ojlc" transform="translate(1283, 1260) scale(0.72, 0.72)" />
                           </g>
                           <g id="m1hmja3y" class="accid" />
                        </g>
                     </g>
                     <g id="p1i0v9i9" class="chord">
                        <g id="rivlv9f" class="stem">
                           <path d="M2190 1322 L2190 540" stroke-width="18" />
                        </g>
                        <g id="nvk29ro" class="note">
                           <g class="notehead">
                              <use xlink:href="#E0A4-xc2ojlc" transform="translate(1973, 1350) scale(0.72, 0.72)" />
                           </g>
                           <g id="o1mwneub" class="accid" />
                        </g>
                        <g id="q10tegb6" class="note">
                           <g class="notehead">
                              <use xlink:href="#E0A4-xc2ojlc" transform="translate(1973, 1170) scale(0.72, 0.72)" />
                           </g>
                           <g id="r1wa8i37" class="accid" />
                        </g>
                     </g>
                     <g id="u1gpfwt5" class="chord">
                        <g id="s1unha1x" class="stem">
                           <path d="M2880 1232 L2880 450" stroke-width="18" />
                        </g>
                        <g id="s1nl6uq7" class="note">
                           <g class="notehead">
                              <use xlink:href="#E0A4-xc2ojlc" transform="translate(2663, 1260) scale(0.72, 0.72)" />
                           </g>
                           <g id="t1drir4c" class="accid" />
                        </g>
                        <g id="v1mwn7s2" class="note">
                           <g class="notehead">
                              <use xlink:href="#E0A4-xc2ojlc" transform="translate(2663, 1080) scale(0.72, 0.72)" />
                           </g>
                           <g id="wf5l8kl" class="accid" />
                        </g>
                     </g>
                     <g id="z1rp02vq" class="chord">
                        <g id="tn0luoq" class="stem">
                           <path d="M3570 1142 L3570 360" stroke-width="18" />
                        </g>
                        <g id="xt1zdsb" class="note">
                           <g class="notehead">
                              <use xlink:href="#E0A4-xc2ojlc" transform="translate(3353, 1170) scale(0.72, 0.72)" />
                           </g>
                           <g id="y1xzckkz" class="accid" />
                        </g>
                        <g id="af3q7m9" class="note">
                           <g class="notehead">
                              <use xlink:href="#E0A4-xc2ojlc" transform="translate(3353, 990) scale(0.72, 0.72)" />
                           </g>
                           <g id="b12g37px" class="accid" />
                        </g>
                     </g>
                  </g>
               </g>
               <g id="f1wavjjb" class="barLine">
                  <path d="M4043 540 L4043 1260" stroke-width="27" />
               </g>
            </g>
            <g id="c1sb7knp" class="measure">
               <g id="lmfyd1g" class="staff">
                  <path d="M4056 540 L7009 540" stroke-width="13" />
                  <path d="M4056 720 L7009 720" stroke-width="13" />
                  <path d="M4056 900 L7009 900" stroke-width="13" />
                  <path d="M4056 1080 L7009 1080" stroke-width="13" />
                  <path d="M4056 1260 L7009 1260" stroke-width="13" />
                  <g id="msut3ha" class="layer">
                     <g id="pcglpa2" class="chord">
                        <g id="unys2bl" class="stem">
                           <path d="M4453 1052 L4453 300" stroke-width="18" />
                        </g>
                        <g id="n1mloqty" class="note">
                           <g class="notehead">
                              <use xlink:href="#E0A4-xc2ojlc" transform="translate(4236, 1080) scale(0.72, 0.72)" />
                           </g>
                           <g id="ooh2ckx" class="accid" />
                        </g>
                        <g id="qhu5fbq" class="note">
                           <g class="notehead">
                              <use xlink:href="#E0A4-xc2ojlc" transform="translate(4236, 900) scale(0.72, 0.72)" />
                           </g>
                           <g id="r1dedo9m" class="accid" />
                        </g>
                     </g>
                     <g id="u1gugban" class="chord">
                        <g id="vkvncls" class="stem">
                           <path d="M4935 838 L4935 1560" stroke-width="18" />
                        </g>
                        <g id="sdt8gbs" class="note">
                           <g class="notehead">
                              <use xlink:href="#E0A4-xc2ojlc" transform="translate(4926, 990) scale(0.72, 0.72)" />
                           </g>
                           <g id="t79c1ro" class="accid" />
                        </g>
                        <g id="v1r6hdg5" class="note">
                           <g class="notehead">
                              <use xlink:href="#E0A4-xc2ojlc" transform="translate(4926, 810) scale(0.72, 0.72)" />
                           </g>
                           <g id="w1sj5qfe" class="accid" />
                        </g>
                     </g>
                     <g id="x1qcs1bx" class="rest">
                        <use xlink:href="#E4E5-xc2ojlc" transform="translate(5616, 900) scale(0.72, 0.72)" />
                     </g>
                     <g id="y101a9db" class="rest">
                        <use xlink:href="#E4E5-xc2ojlc" transform="translate(6306, 900) scale(0.72, 0.72)" />
                     </g>
                  </g>
               </g>
               <g id="k9zmy2n" class="barLine">
                  <path d="M6996 540 L6996 1260" stroke-width="27" />
               </g>
            </g>
            <g id="ir11w8b" class="systemMilestoneEnd z19b53h2" />
            <g id="j123l73r" class="systemMilestoneEnd k1toalx" />
         </g>
         <g id="ktb3swp" class="pageMilestoneEnd i1jx4qzs" />
         <g id="l9snaj6" class="pageMilestoneEnd h1c1p53i" />
      </g>
   </svg>
</svg>
