<svg width="214" height="84" viewBox="0 0 214 84" version="1.1" xmlns="http://www.w3.org/2000/svg" xmlns:xlink="http://www.w3.org/1999/xlink" overflow="visible" id="h1rzivvo">
   <desc>Engraved by Verovio 6.2.0-43f8060</desc>
   <defs>
      <g id="E050-h1rzivvo">
         <path transform="scale(1,-1)" d="M441 -245c-23 -4 -48 -6 -76 -6c-59 0 -102 7 -130 20c-88 42 -150 93 -187 154c-26 44 -43 103 -48 176c0 6 -1 13 -1 19c0 54 15 111 45 170c29 57 65 106 110 148s96 85 153 127c-3 16 -8 46 -13 92c-4 43 -5 73 -5 89c0 117 16 172 69 257c34 54 64 82 89 82 c21 0 43 -30 69 -92s39 -115 41 -159v-15c0 -109 -21 -162 -67 -241c-13 -20 -63 -90 -98 -118c-13 -9 -25 -19 -37 -29l31 -181c8 1 18 2 28 2c58 0 102 -12 133 -35c59 -43 92 -104 98 -184c1 -7 1 -15 1 -22c0 -123 -87 -209 -181 -248c8 -57 17 -110 25 -162 c5 -31 6 -58 6 -80c0 -30 -5 -53 -14 -70c-35 -64 -88 -99 -158 -103c-5 0 -11 -1 -16 -1c-37 0 -72 10 -108 27c-50 24 -77 59 -80 105v11c0 29 7 55 20 76c18 28 45 42 79 44h6c49 0 93 -42 97 -87v-9c0 -51 -34 -86 -105 -106c17 -24 51 -36 102 -36c62 0 116 43 140 85 c9 16 13 41 13 74c0 20 -1 42 -5 67c-8 53 -18 106 -26 159zM461 939c-95 0 -135 -175 -135 -286c0 -24 2 -48 5 -71c50 39 92 82 127 128c40 53 60 100 60 140v8c-4 53 -22 81 -55 81h-2zM406 119l54 -326c73 25 110 78 110 161c0 7 0 15 -1 23c-7 95 -57 142 -151 142h-12 zM382 117c-72 -2 -128 -47 -128 -120v-7c2 -46 43 -99 75 -115c-3 -2 -7 -5 -10 -10c-70 33 -116 88 -123 172v11c0 68 44 126 88 159c23 17 49 29 78 36l-29 170c-21 -13 -52 -37 -92 -73c-50 -44 -86 -84 -109 -119c-45 -69 -67 -130 -67 -182v-13c5 -68 35 -127 93 -176 s125 -73 203 -73c25 0 50 3 75 9c-19 111 -36 221 -54 331z" />
      </g>
      <g id="E084-h1rzivvo">
         <path transform="scale(1,-1)" d="M20 -78c84 97 114 180 134 329h170c-13 -32 -82 -132 -99 -151l-84 -97c-33 -36 -59 -63 -80 -81h162v102l127 123v-225h57v-39h-57v-34c0 -43 19 -65 57 -65v-34h-244v36c48 0 60 26 60 70v27h-203v39z" />
      </g>
      <g id="E0A4-h1rzivvo">
         <path transform="scale(1,-1)" d="M0 -39c0 68 73 172 200 172c66 0 114 -37 114 -95c0 -84 -106 -171 -218 -171c-64 0 -96 30 -96 94z" />
      </g>
      <g id="E4A3-h1rzivvo">
         <path transform="scale(1,-1)" d="M0 -48c0 26 22 48 48 48s48 -22 48 -48s-22 -48 -48 -48s-48 22 -48 48z" />
      </g>
   </defs>
   <style type="text/css">#h1rzivvo g.ending, #h1rzivvo g.fing, #h1rzivvo g.reh, #h1rzivvo g.tempo {font-weight:bold;}#h1rzivvo g.dir, #h1rzivvo g.dynam, #h1rzivvo g.mNum {font-style:italic;}#h1rzivvo g.label {font-weight:normal;}#h1rzivvo ellipse, #h1rzivvo path, #h1rzivvo polygon, #h1rzivvo polyline, #h1rzivvo rect {stroke:currentColor}</style>
   <svg class="definition-scale" color="black" font-family="Times, serif" viewBox="0 0 5090 2000">
      <g class="page-margin" transform="translate(100, 100)">
         <g id="r1e8u4fw" class="mdiv pageMilestone" />
         <g id="sppc6oe" class="score pageMilestone" />
         <g id="y12dxxoo" class="system">
            <g id="uib53un" class="section systemMilestone" />
            <g id="s1s3gcjw" class="section systemMilestone" />
            <g id="hjmbdnm" class="measure">
               <g id="q1igbgqc" class="staff">
                  <path d="M0 540 L4896 540" stroke-width="13" />
                  <path d="M0 720 L4896 720" stroke-width="13" />
                  <path d="M0 900 L4896 900" stroke-width="13" />
                  <path d="M0 1080 L4896 1080" stroke-width="13" />
                  <path d="M0 1260 L4896 1260" stroke-width="13" />
                  <g id="k1jmi4a" class="clef">
                     <use xlink:href="#E050-h1rzivvo" transform="translate(90, 1080) scale(0.72, 0.72)" />
                  </g>
                  <g id="lpk4712" class="keySig" />
                  <g id="mfjuz2o" class="meterSig">
                     <use xlink:href="#E084-h1rzivvo" transform="translate(721, 720) scale(0.72, 0.72)" />
                     <use xlink:href="#E084-h1rzivvo" transform="translate(721, 1080) scale(0.72, 0.72)" />
                  </g>
                  <g class="ledgerLines below">
                     <path d="M1235 1440 L1557 1440" stroke-width="22" />
                  </g>
                  <g id="rmvpko" class="layer">
                     <g id="slwzqfc" class="beam">
                        <polygon points="1491,720 2859,540 2859,630 1491,810" />
                        <g id="tewp5wn" class="note">
                           <g class="notehead">
                              <use xlink:href="#E0A4-h1rzivvo" transform="translate(1283, 1440) scale(0.72, 0.72)" />
                           </g>
                           <g id="houew7x" class="stem">
                              <path d="M1500 1412 L1500 738" stroke-width="18" />
                           </g>
                           <g id="uoa2z2j" class="accid" />
                           <g id="vz1c5ol" class="artic">
                              <use xlink:href="#E4A3-h1rzivvo" transform="translate(1362, 1563) scale(0.72, 0.72)" />
                           </g>
                        </g>
                        <g id="wyyl7jz" class="note">
                           <g class="notehead">
                              <use xlink:href="#E0A4-h1rzivvo" transform="translate(1733, 1350) scale(0.72, 0.72)" />
                           </g>
                           <g id="i173hu0w" class="stem">
                              <path d="M1950 1322 L1950 678" stroke-width="18" />
                           </g>
                           <g id="xb9a37o" class="accid" />
                           <g id="y1mifgk0" class="artic">
                              <use xlink:href="#E4A3-h1rzivvo" transform="translate(1812, 1473) scale(0.72, 0.72)" />
                           </g>
                        </g>
                        <g id="z1ndjnov" class="note">
                           <g class="notehead">
                              <use xlink:href="#E0A4-h1rzivvo" transform="translate(2183, 1260) scale(0.72, 0.72)" />
                           </g>
                           <g id="jrs14mr" class="stem">
                              <path d="M2400 1232 L2400 618" stroke-width="18" />
                           </g>
                           <g id="a1v552u" class="accid" />
                           <g id="b1w7f2jm" class="artic">
                              <use xlink:href="#E4A3-h1rzivvo" transform="translate(2262, 1383) scale(0.72, 0.72)" />
                           </g>
                        </g>
                        <g id="c3g1nto" class="note">
                           <g class="notehead">
                              <use xlink:href="#E0A4-h1rzivvo" transform="translate(2633, 1170) scale(0.72, 0.72)" />
                           </g>
                           <g id="k62nuhh" class="stem">
                              <path d="M2850 1142 L2850 558" stroke-width="18" />
                           </g>
                           <g id="d1az5nac" class="accid" />
                           <g id="e1pc4mlb" class="artic">
                              <use xlink:href="#E4A3-h1rzivvo" transform="translate(2712, 1316) scale(0.72, 0.72)" />
                           </g>
                        </g>
                     </g>
                     <g id="f1jtpz47" class="beam">
                        <polygon points="3291,450 4659,270 4659,360 3291,540" />
                        <g id="gnaef99" class="note">
                           <g class="notehead">
                              <use xlink:href="#E0A4-h1rzivvo" transform="translate(3083, 1080) scale(0.72, 0.72)" />
                           </g>
                           <g id="l18rdrb4" class="stem">
                              <path d="M3300 1052 L3300 468" stroke-width="18" />
                           </g>
                           <g id="h1cvsddx" class="accid" />
                           <g id="i1s0c20m" class="artic">
                              <use xlink:href="#E4A3-h1rzivvo" transform="translate(3162, 1316) scale(0.72, 0.72)" />
                           </g>
                        </g>
                        <g id="jdkuj8e" class="note">
                           <g class="notehead">
                              <use xlink:href="#E0A4-h1rzivvo" transform="translate(3533, 990) scale(0.72, 0.72)" />
                           </g>
                           <g id="m1bat3f3" class="stem">
                              <path d="M3750 962 L3750 408" stroke-width="18" />
                           </g>
                           <g id="k1o7byk2" class="accid" />
                           <g id="likfsj6" class="artic">
                              <use xlink:href="#E4A3-h1rzivvo" transform="translate(3612, 1136) scale(0.72, 0.72)" />
                           </g>
                        </g>
                        <g id="mivxeg7" class="note">
                           <g class="notehead">
                              <use xlink:href="#E0A4-h1rzivvo" transform="translate(3983, 900) scale(0.72, 0.72)" />
                           </g>
                           <g id="n1wia9r" class="stem">
                              <path d="M4200 872 L4200 348" stroke-width="18" />
                           </g>
                           <g id="nfb7yvj" class="accid" />
                           <g id="oa6ggjs" class="artic">
                              <use xlink:href="#E4A3-h1rzivvo" transform="translate(4062, 1136) scale(0.72, 0.72)" />
                           </g>
                        </g>
                        <g id="p14pz7jg" class="note">
                           <g class="notehead">
                              <use xlink:href="#E0A4-h1rzivvo" transform="translate(4433, 810) scale(0.72, 0.72)" />
                           </g>
                           <g id="o1yrvxo0" class="stem">
                              <path d="M4650 782 L4650 288" stroke-width="18" />
                           </g>
                           <g id="q9y7ptw" class="accid" />
                           <g id="rt5kiva" class="artic">
                              <use xlink:href="#E4A3-h1rzivvo" transform="translate(4512, 956) scale(0.72, 0.72)" />
                           </g>
                        </g>
                     </g>
                  </g>
               </g>
               <g id="p1mehs7z" class="barLine">
                  <path d="M4883 540 L4883 1260" stroke-width="27" />
               </g>
            </g>
            <g id="bnszb3g" class="systemMilestoneEnd s1s3gcjw" />
            <g id="c15268mr" class="systemMilestoneEnd uib53un" />
         </g>
         <g id="dpr5cmb" class="pageMilestoneEnd sppc6oe" />
         <g id="e12agn6d" class="pageMilestoneEnd r1e8u4fw" />
      </g>
   </svg>
</svg>
