<svg width="303" height="84" viewBox="0 0 303 84" version="1.1" xmlns="http://www.w3.org/2000/svg" xmlns:xlink="http://www.w3.org/1999/xlink" overflow="visible" id="wwocult">
   <desc>Engraved by Verovio 6.2.0-43f8060</desc>
   <defs>
      <g id="E050-wwocult">
         <path transform="scale(1,-1)" d="M441 -245c-23 -4 -48 -6 -76 -6c-59 0 -102 7 -130 20c-88 42 -150 93 -187 154c-26 44 -43 103 -48 176c0 6 -1 13 -1 19c0 54 15 111 45 170c29 57 65 106 110 148s96 85 153 127c-3 16 -8 46 -13 92c-4 43 -5 73 -5 89c0 117 16 172 69 257c34 54 64 82 89 82 c21 0 43 -30 69 -92s39 -115 41 -159v-15c0 -109 -21 -162 -67 -241c-13 -20 -63 -90 -98 -118c-13 -9 -25 -19 -37 -29l31 -181c8 1 18 2 28 2c58 0 102 -12 133 -35c59 -43 92 -104 98 -184c1 -7 1 -15 1 -22c0 -123 -87 -209 -181 -248c8 -57 17 -110 25 -162 c5 -31 6 -58 6 -80c0 -30 -5 -53 -14 -70c-35 -64 -88 -99 -158 -103c-5 0 -11 -1 -16 -1c-37 0 -72 10 -108 27c-50 24 -77 59 -80 105v11c0 29 7 55 20 76c18 28 45 42 79 44h6c49 0 93 -42 97 -87v-9c0 -51 -34 -86 -105 -106c17 -24 51 -36 102 -36c62 0 116 43 140 85 c9 16 13 41 13 74c0 20 -1 42 -5 67c-8 53 -18 106 -26 159zM461 939c-95 0 -135 -175 -135 -286c0 -24 2 -48 5 -71c50 39 92 82 127 128c40 53 60 100 60 140v8c-4 53 -22 81 -55 81h-2zM406 119l54 -326c73 25 110 78 110 161c0 7 0 15 -1 23c-7 95 -57 142 -151 142h-12 zM382 117c-72 -2 -128 -47 -128 -120v-7c2 -46 43 -99 75 -115c-3 -2 -7 -5 -10 -10c-70 33 -116 88 -123 172v11c0 68 44 126 88 159c23 17 49 29 78 36l-29 170c-21 -13 -52 -37 -92 -73c-50 -44 -86 -84 -109 -119c-45 -69 -67 -130 -67 -182v-13c5 -68 35 -127 93 -176 s125 -73 203 -73c25 0 50 3 75 9c-19 111 -36 221 -54 331z" />
      </g>
      <g id="E084-wwocult">
         <path transform="scale(1,-1)" d="M20 -78c84 97 114 180 134 329h170c-13 -32 -82 -132 -99 -151l-84 -97c-33 -36 -59 -63 -80 -81h162v102l127 123v-225h57v-39h-57v-34c0 -43 19 -65 57 -65v-34h-244v36c48 0 60 26 60 70v27h-203v39z" />
      </g>
      <g id="E0A4-wwocult">
         <path transform="scale(1,-1)" d="M0 -39c0 68 73 172 200 172c66 0 114 -37 114 -95c0 -84 -106 -171 -218 -171c-64 0 -96 30 -96 94z" />
      </g>
      <g id="E4E5-wwocult">
         <path transform="scale(1,-1)" d="M107 292c-13 24 -30 49 -52 71c-1 1 0 2 0 3l-2 2c3 3 4 4 6 4c12 0 26 -7 40 -20s44 -40 89 -81c26 -24 28 -29 46 -47c4 -4 8 -9 10 -14c6 -8 8 -16 8 -27c0 -19 -12 -40 -36 -61c-28 -23 -49 -38 -61 -73c-4 -11 -7 -27 -10 -50c13 -43 34 -83 59 -121 c31 -47 59 -79 101 -129c-8 0 -26 7 -54 20l-62 29l-21 6l-23 1c-25 0 -45 -10 -60 -30l-4 -14l-1 -12c0 -33 20 -56 39 -78c8 -9 17 -18 26 -26c17 -15 27 -24 28 -30l-3 -3c-11 5 -19 10 -25 15c-9 3 -37 21 -45 26c-24 14 -45 32 -63 51c-19 21 -37 44 -37 71 c0 63 27 95 80 95c41 0 86 -18 136 -52c-19 26 -37 48 -55 66c-23 23 -48 44 -73 65c-28 23 -47 40 -58 53s-17 26 -18 39c75 64 113 125 113 183c0 27 -7 48 -18 68z" />
      </g>
   </defs>
   <style type="text/css">#wwocult g.ending, #wwocult g.fing, #wwocult g.reh, #wwocult g.tempo {font-weight:bold;}#wwocult g.dir, #wwocult g.dynam, #wwocult g.mNum {font-style:italic;}#wwocult g.label {font-weight:normal;}#wwocult ellipse, #wwocult path, #wwocult polygon, #wwocult polyline, #wwocult rect {stroke:currentColor}</style>
   <svg class="definition-scale" color="black" font-family="Times, serif" viewBox="0 0 7200 2000">
      <g class="page-margin" transform="translate(100, 100)">
         <g id="g1bnkeia" class="mdiv pageMilestone" />
         <g id="h5l990v" class="score pageMilestone" />
         <g id="eo4km76" class="system">
            <g id="j17rf83v" class="section systemMilestone" />
            <g id="y12ckg7c" class="section systemMilestone" />
            <g id="wce62q6" class="measure">
               <g id="f1toua8d" class="staff">
                  <path d="M0 540 L4056 540" stroke-width="13" />
                  <path d="M0 720 L4056 720" stroke-width="13" />
                  <path d="M0 900 L4056 900" stroke-width="13" />
                  <path d="M0 1080 L4056 1080" stroke-width="13" />
                  <path d="M0 1260 L4056 1260" stroke-width="13" />
                  <g id="qx4h7zn" class="clef">
                     <use xlink:href="#E050-wwocult" transform="translate(90, 1080) scale(0.72, 0.72)" />
                  </g>
                  <g id="r1yf668y" class="keySig" />
                  <g id="s1siqfeq" class="meterSig">
                     <use xlink:href="#E084-wwocult" transform="translate(721, 720) scale(0.72, 0.72)" />
                     <use xlink:href="#E084-wwocult" transform="translate(721, 1080) scale(0.72, 0.72)" />
                  </g>
                  <g class="ledgerLines below">
                     <path d="M1235 1440 L1557 1440" stroke-width="22" />
                  </g>
                  <g id="gjm26wq" class="layer">
                     <g id="j1sevmd" class="chord">
                        <g id="p1actcoo" class="stem">
                           <path d="M1500 1412 L1500 630" stroke-width="18" />
                        </g>
                        <g id="huh14px" class="note">
                           <g class="notehead">
                              <use xlink:href="#E0A4-wwocult" transform="translate(1283, 1440) scale(0.72, 0.72)" />
                           </g>
                           <g id="iddxbmu" class="accid" />
                        </g>
                        <g id="k1oe8ykr" class="note">
                           <g class="notehead">
                              <use xlink:href="#E0A4-wwocult" transform="translate(1283, 1260) scale(0.72, 0.72)" />
                           </g>
                           <g id="l1j3phs9" class="accid" />
                        </g>
                     </g>
                     <g id="o1i6hc04" class="chord">
                        <g id="q10ga5jq" class="stem">
                           <path d="M2190 1322 L2190 540" stroke-width="18" />
                        </g>
                        <g id="mizmmj2" class="note">
                           <g class="notehead">
                              <use xlink:href="#E0A4-wwocult" transform="translate(1973, 1350) scale(0.72, 0.72)" />
                           </g>
                           <g id="nicp6yb" class="accid" />
                        </g>
                        <g id="po1su0q" class="note">
                           <g class="notehead">
                              <use xlink:href="#E0A4-wwocult" transform="translate(1973, 1170) scale(0.72, 0.72)" />
                           </g>
                           <g id="qkklwxg" class="accid" />
                        </g>
                     </g>
                     <g id="tqiyvd8" class="chord">
                        <g id="rkvqeak" class="stem">
                           <path d="M2880 1232 L2880 450" stroke-width="18" />
                        </g>
                        <g id="r1o7gpfp" class="note">
                           <g class="notehead">
                              <use xlink:href="#E0A4-wwocult" transform="translate(2663, 1260) scale(0.72, 0.72)" />
                           </g>
                           <g id="s1wfpv6h" class="accid" />
                        </g>
                        <g id="u1g5ibmi" class="note">
                           <g class="notehead">
                              <use xlink:href="#E0A4-wwocult" transform="translate(2663, 1080) scale(0.72, 0.72)" />
                           </g>
                           <g id="vr5qp3h" class="accid" />
                        </g>
                     </g>
                     <g id="y19jgui2" class="chord">
                        <g id="sn2xodz" class="stem">
                           <path d="M3570 1142 L3570 360" stroke-width="18" />
                        </g>
                        <g id="w1ogq3m8" class="note">
                           <g class="notehead">
                              <use xlink:href="#E0A4-wwocult" transform="translate(3353, 1170) scale(0.72, 0.72)" />
                           </g>
                           <g id="x1vgd84g" class="accid" />
                        </g>
                        <g id="zhnrr0f" class="note">
                           <g class="notehead">
                              <use xlink:href="#E0A4-wwocult" transform="translate(3353, 990) scale(0.72, 0.72)" />
                           </g>
                           <g id="ag8dypr" class="accid" />
                        </g>
                     </g>
                  </g>
               </g>
               <g id="e11fkbbb" class="barLine">
                  <path d="M4043 540 L4043 1260" stroke-width="27" />
               </g>
            </g>
            <g id="b1ya21md" class="measure">
               <g id="k1mucxhl" class="staff">
                  <path d="M4056 540 L7009 540" stroke-width="13" />
                  <path d="M4056 720 L7009 720" stroke-width="13" />
                  <path d="M4056 900 L7009 900" stroke-width="13" />
                  <path d="M4056 1080 L7009 1080" stroke-width="13" />
                  <path d="M4056 1260 L7009 1260" stroke-width="13" />
                  <g id="l169c2r0" class="layer">
                     <g id="o17qfxjv" class="chord">
                        <g id="t11mcny" class="stem">
                           <path d="M4453 1052 L4453 300" stroke-width="18" />
                        </g>
                        <g id="m1d6df21" class="note">
                           <g class="notehead">
                              <use xlink:href="#E0A4-wwocult" transform="translate(4236, 1080) scale(0.72, 0.72)" />
                           </g>
                           <g id="n1fb9kfd" class="accid" />
                        </g>
                        <g id="pti2tdb" class="note">
                           <g class="notehead">
                              <use xlink:href="#E0A4-wwocult" transform="translate(4236, 900) scale(0.72, 0.72)" />
                           </g>
                           <g id="qdfx6vt" class="accid" />
                        </g>
                     </g>
                     <g id="tynmi2w" class="chord">
                        <g id="u1eyxhkr" class="stem">
                           <path d="M4935 838 L4935 1560" stroke-width="18" />
                        </g>
                        <g id="rsu3eff" class="note">
                           <g class="notehead">
                              <use xlink:href="#E0A4-wwocult" transform="translate(4926, 990) scale(0.72, 0.72)" />
                           </g>
                           <g id="ss977y4" class="accid" />
                        </g>
                        <g id="uy25zgx" class="note">
                           <g class="notehead">
                              <use xlink:href="#E0A4-wwocult" transform="translate(4926, 810) scale(0.72, 0.72)" />
                           </g>
                           <g id="v1mouejm" class="accid" />
                        </g>
                     </g>
                     <g id="w16lc5ga" class="rest">
                        <use xlink:href="#E4E5-wwocult" transform="translate(5616, 900) scale(0.72, 0.72)" />
                     </g>
                     <g id="xkpkxz1" class="rest">
                        <use xlink:href="#E4E5-wwocult" transform="translate(6306, 900) scale(0.72, 0.72)" />
                     </g>
                  </g>
               </g>
               <g id="j1btfavf" class="barLine">
                  <path d="M6996 540 L6996 1260" stroke-width="27" />
               </g>
            </g>
            <g id="h1sjetpq" class="systemMilestoneEnd y12ckg7c" />
            <g id="ijzfpbx" class="systemMilestoneEnd j17rf83v" />
         </g>
         <g id="jodsg09" class="pageMilestoneEnd h5l990v" />
         <g id="k11mv0u5" class="pageMilestoneEnd g1bnkeia" />
      </g>
   </svg>
</svg>
