<svg width="226" height="84" viewBox="0 0 226 84" version="1.1" xmlns="http://www.w3.org/2000/svg" xmlns:xlink="http://www.w3.org/1999/xlink" overflow="visible" id="r1cc6oqb">
   <desc>Engraved by Verovio 6.2.0-43f8060</desc>
   <defs>
      <g id="E050-r1cc6oqb">
         <path transform="scale(1,-1)" d="M441 -245c-23 -4 -48 -6 -76 -6c-59 0 -102 7 -130 20c-88 42 -150 93 -187 154c-26 44 -43 103 -48 176c0 6 -1 13 -1 19c0 54 15 111 45 170c29 57 65 106 110 148s96 85 153 127c-3 16 -8 46 -13 92c-4 43 -5 73 -5 89c0 117 16 172 69 257c34 54 64 82 89 82 c21 0 43 -30 69 -92s39 -115 41 -159v-15c0 -109 -21 -162 -67 -241c-13 -20 -63 -90 -98 -118c-13 -9 -25 -19 -37 -29l31 -181c8 1 18 2 28 2c58 0 102 -12 133 -35c59 -43 92 -104 98 -184c1 -7 1 -15 1 -22c0 -123 -87 -209 -181 -248c8 -57 17 -110 25 -162 c5 -31 6 -58 6 -80c0 -30 -5 -53 -14 -70c-35 -64 -88 -99 -158 -103c-5 0 -11 -1 -16 -1c-37 0 -72 10 -108 27c-50 24 -77 59 -80 105v11c0 29 7 55 20 76c18 28 45 42 79 44h6c49 0 93 -42 97 -87v-9c0 -51 -34 -86 -105 -106c17 -24 51 -36 102 -36c62 0 116 43 140 85 c9 16 13 41 13 74c0 20 -1 42 -5 67c-8 53 -18 106 -26 159zM461 939c-95 0 -135 -175 -135 -286c0 -24 2 -48 5 -71c50 39 92 82 127 128c40 53 60 100 60 140v8c-4 53 -22 81 -55 81h-2zM406 119l54 -326c73 25 110 78 110 161c0 7 0 15 -1 23c-7 95 -57 142 -151 142h-12 zM382 117c-72 -2 -128 -47 -128 -120v-7c2 -46 43 -99 75 -115c-3 -2 -7 -5 -10 -10c-70 33 -116 88 -123 172v11c0 68 44 126 88 159c23 17 49 29 78 36l-29 170c-21 -13 -52 -37 -92 -73c-50 -44 -86 -84 -109 -119c-45 -69 -67 -130 -67 -182v-13c5 -68 35 -127 93 -176 s125 -73 203 -73c25 0 50 3 75 9c-19 111 -36 221 -54 331z" />
      </g>
      <g id="E084-r1cc6oqb">
         <path transform="scale(1,-1)" d="M20 -78c84 97 114 180 134 329h170c-13 -32 -82 -132 -99 -151l-84 -97c-33 -36 -59 -63 -80 -81h162v102l127 123v-225h57v-39h-57v-34c0 -43 19 -65 57 -65v-34h-244v36c48 0 60 26 60 70v27h-203v39z" />
      </g>
      <g id="E0A4-r1cc6oqb">
         <path transform="scale(1,-1)" d="M0 -39c0 68 73 172 200 172c66 0 114 -37 114 -95c0 -84 -106 -171 -218 -171c-64 0 -96 30 -96 94z" />
      </g>
      <g id="E240-r1cc6oqb">
         <path transform="scale(1,-1)" d="M179 -646c15 29 29 55 46 102c18 49 30 108 30 138c0 105 -80 173 -168 200c-18 5 -47 9 -87 16v190h22c8 0 33 -61 71 -95c4 -3 -2 3 61 -56c62 -58 122 -137 122 -241c0 -38 -13 -106 -35 -163c-20 -51 -43 -99 -66 -132c-6 -5 -10 -7 -13 -7s-5 2 -5 5l4 10 c1 3 14 25 18 33z" />
      </g>
      <g id="E4A3-r1cc6oqb">
         <path transform="scale(1,-1)" d="M0 -48c0 26 22 48 48 48s48 -22 48 -48s-22 -48 -48 -48s-48 22 -48 48z" />
      </g>
      <g id="E241-r1cc6oqb">
         <path transform="scale(1,-1)" d="M179 646c-4 8 -17 30 -18 33l-4 10c0 3 2 5 5 5s7 -2 13 -7c23 -33 46 -81 66 -132c22 -57 35 -125 35 -163c0 -104 -60 -183 -122 -241c-63 -59 -57 -53 -61 -56c-38 -34 -63 -95 -71 -95h-22v190c40 7 69 11 87 16c88 27 168 95 168 200c0 30 -12 89 -30 138 c-17 47 -31 73 -46 102z" />
      </g>
      <g id="E4A2-r1cc6oqb">
         <path transform="scale(1,-1)" d="M0 48c0 26 22 48 48 48s48 -22 48 -48s-22 -48 -48 -48s-48 22 -48 48z" />
      </g>
   </defs>
   <style type="text/css">#r1cc6oqb g.ending, #r1cc6oqb g.fing, #r1cc6oqb g.reh, #r1cc6oqb g.tempo {font-weight:bold;}#r1cc6oqb g.dir, #r1cc6oqb g.dynam, #r1cc6oqb g.mNum {font-style:italic;}#r1cc6oqb g.label {font-weight:normal;}#r1cc6oqb ellipse, #r1cc6oqb path, #r1cc6oqb polygon, #r1cc6oqb polyline, #r1cc6oqb rect {stroke:currentColor}</style>
   <svg class="definition-scale" color="black" font-family="Times, serif" viewBox="0 0 5370 2000">
      <g class="page-margin" transform="translate(100, 100)">
         <g id="b1mh64xe" class="mdiv pageMilestone" />
         <g id="c11kg9gx" class="score pageMilestone" />
         <g id="e1aijq6s" class="system">
            <g id="etw1g5f" class="section systemMilestone" />
            <g id="ycvrs8y" class="section systemMilestone" />
            <g id="r1y6dh7x" class="measure">
               <g id="ab8r9to" class="staff">
                  <path d="M0 540 L5172 540" stroke-width="13" />
                  <path d="M0 720 L5172 720" stroke-width="13" />
                  <path d="M0 900 L5172 900" stroke-width="13" />
                  <path d="M0 1080 L5172 1080" stroke-width="13" />
                  <path d="M0 1260 L5172 1260" stroke-width="13" />
                  <g id="y1j1zhia" class="clef">
                     <use xlink:href="#E050-r1cc6oqb" transform="translate(90, 1080) scale(0.72, 0.72)" />
                  </g>
                  <g id="z1u2wx6m" class="keySig" />
                  <g id="as232y6" class="meterSig">
                     <use xlink:href="#E084-r1cc6oqb" transform="translate(721, 720) scale(0.72, 0.72)" />
                     <use xlink:href="#E084-r1cc6oqb" transform="translate(721, 1080) scale(0.72, 0.72)" />
                  </g>
                  <g class="ledgerLines below">
                     <path d="M1235 1440 L1557 1440" stroke-width="22" />
                  </g>
                  <g id="bb5rfyf" class="layer">
                     <g id="cljsmyp" class="note">
                        <g class="notehead">
                           <use xlink:href="#E0A4-r1cc6oqb" transform="translate(1283, 1440) scale(0.72, 0.72)" />
                        </g>
                        <g id="nuum8ll" class="stem">
                           <path d="M1500 1412 L1500 810" stroke-width="18" />
                           <g id="offcbm9" class="flag">
                              <use xlink:href="#E240-r1cc6oqb" transform="translate(1491, 810) scale(0.72, 0.72)" />
                           </g>
                        </g>
                        <g id="d4en8z1" class="accid" />
                     </g>
                     <g id="f8z5300" class="note">
                        <g class="notehead">
                           <use xlink:href="#E0A4-r1cc6oqb" transform="translate(1779, 1350) scale(0.72, 0.72)" />
                        </g>
                        <g id="p8mvvjk" class="stem">
                           <path d="M1996 1322 L1996 720" stroke-width="18" />
                           <g id="q1co0tiu" class="flag">
                              <use xlink:href="#E240-r1cc6oqb" transform="translate(1987, 720) scale(0.72, 0.72)" />
                           </g>
                        </g>
                        <g id="g1604ii4" class="accid" />
                     </g>
                     <g id="hauh7x4" class="note">
                        <g class="notehead">
                           <use xlink:href="#E0A4-r1cc6oqb" transform="translate(2275, 1260) scale(0.72, 0.72)" />
                        </g>
                        <g id="roeitpw" class="stem">
                           <path d="M2492 1232 L2492 630" stroke-width="18" />
                           <g id="s1xnao1v" class="flag">
                              <use xlink:href="#E240-r1cc6oqb" transform="translate(2483, 630) scale(0.72, 0.72)" />
                           </g>
                        </g>
                        <g id="i1jnewfl" class="accid" />
                        <g id="j18oh4pr" class="artic">
                           <use xlink:href="#E4A3-r1cc6oqb" transform="translate(2354, 1383) scale(0.72, 0.72)" />
                        </g>
                     </g>
                     <g id="k1bnutfd" class="note">
                        <g class="notehead">
                           <use xlink:href="#E0A4-r1cc6oqb" transform="translate(2771, 1170) scale(0.72, 0.72)" />
                        </g>
                        <g id="t1adl825" class="stem">
                           <path d="M2988 1142 L2988 540" stroke-width="18" />
                           <g id="u1ghl8ia" class="flag">
                              <use xlink:href="#E240-r1cc6oqb" transform="translate(2979, 540) scale(0.72, 0.72)" />
                           </g>
                        </g>
                        <g id="lo8dgf1" class="accid" />
                        <g id="m1h4mm6g" class="artic">
                           <use xlink:href="#E4A3-r1cc6oqb" transform="translate(2850, 1316) scale(0.72, 0.72)" />
                        </g>
                     </g>
                     <g id="nosibz4" class="note">
                        <g class="notehead">
                           <use xlink:href="#E0A4-r1cc6oqb" transform="translate(3267, 1080) scale(0.72, 0.72)" />
                        </g>
                        <g id="v1ss8jfb" class="stem">
                           <path d="M3484 1052 L3484 450" stroke-width="18" />
                           <g id="wwguet4" class="flag">
                              <use xlink:href="#E240-r1cc6oqb" transform="translate(3475, 450) scale(0.72, 0.72)" />
                           </g>
                        </g>
                        <g id="od8lmmj" class="accid" />
                     </g>
                     <g id="q3q5qmm" class="note">
                        <g class="notehead">
                           <use xlink:href="#E0A4-r1cc6oqb" transform="translate(3763, 990) scale(0.72, 0.72)" />
                        </g>
                        <g id="x1gtmtus" class="stem">
                           <path d="M3980 962 L3980 360" stroke-width="18" />
                           <g id="y26240r" class="flag">
                              <use xlink:href="#E240-r1cc6oqb" transform="translate(3971, 360) scale(0.72, 0.72)" />
                           </g>
                        </g>
                        <g id="r16b7ck" class="accid" />
                     </g>
                     <g id="s1578y7t" class="note">
                        <g class="notehead">
                           <use xlink:href="#E0A4-r1cc6oqb" transform="translate(4259, 900) scale(0.72, 0.72)" />
                        </g>
                        <g id="zmju53e" class="stem">
                           <path d="M4268 928 L4268 1500" stroke-width="18" />
                           <g id="a1d4h1rr" class="flag">
                              <use xlink:href="#E241-r1cc6oqb" transform="translate(4259, 1500) scale(0.72, 0.72)" />
                           </g>
                        </g>
                        <g id="tkb73aj" class="accid" />
                        <g id="u1f924zl" class="artic">
                           <use xlink:href="#E4A2-r1cc6oqb" transform="translate(4338, 664) scale(0.72, 0.72)" />
                        </g>
                     </g>
                     <g id="v12015gw" class="note">
                        <g class="notehead">
                           <use xlink:href="#E0A4-r1cc6oqb" transform="translate(4709, 810) scale(0.72, 0.72)" />
                        </g>
                        <g id="b1y6ilja" class="stem">
                           <path d="M4718 838 L4718 1440" stroke-width="18" />
                           <g id="c8lg27n" class="flag">
                              <use xlink:href="#E241-r1cc6oqb" transform="translate(4709, 1440) scale(0.72, 0.72)" />
                           </g>
                        </g>
                        <g id="wycn06o" class="accid" />
                        <g id="xur9rjd" class="artic">
                           <use xlink:href="#E4A2-r1cc6oqb" transform="translate(4788, 664) scale(0.72, 0.72)" />
                        </g>
                     </g>
                  </g>
               </g>
               <g id="emgkikp" class="slur">
                  <path d="M1396,1642 C1511,1701 1801,1647 1890,1552 C1839,1700 1494,1763 1396,1642" stroke-width="9" stroke-linecap="round" stroke-linejoin="round" />
               </g>
               <g id="puq4c3n" class="slur">
                  <path d="M3380,1282 C3495,1341 3785,1287 3874,1192 C3823,1340 3478,1403 3380,1282" stroke-width="9" stroke-linecap="round" stroke-linejoin="round" />
               </g>
               <g id="z14e88pc" class="barLine">
                  <path d="M5159 540 L5159 1260" stroke-width="27" />
               </g>
            </g>
            <g id="h17p4ohr" class="systemMilestoneEnd ycvrs8y" />
            <g id="i1vgn55y" class="systemMilestoneEnd etw1g5f" />
         </g>
         <g id="jrde2cg" class="pageMilestoneEnd c11kg9gx" />
         <g id="k1ublfou" class="pageMilestoneEnd b1mh64xe" />
      </g>
   </svg>
</svg>
