<svg width="303" height="84" viewBox="0 0 303 84" version="1.1" xmlns="http://www.w3.org/2000/svg" xmlns:xlink="http://www.w3.org/1999/xlink" overflow="visible" id="cgotefc">
   <desc>Engraved by Verovio 6.2.0-43f8060</desc>
   <defs>
      <g id="E050-cgotefc">
         <path transform="scale(1,-1)" d="M441 -245c-23 -4 -48 -6 -76 -6c-59 0 -102 7 -130 20c-88 42 -150 93 -187 154c-26 44 -43 103 -48 176c0 6 -1 13 -1 19c0 54 15 111 45 170c29 57 65 106 110 148s96 85 153 127c-3 16 -8 46 -13 92c-4 43 -5 73 -5 89c0 117 16 172 69 257c34 54 64 82 89 82 c21 0 43 -30 69 -92s39 -115 41 -159v-15c0 -109 -21 -162 -67 -241c-13 -20 -63 -90 -98 -118c-13 -9 -25 -19 -37 -29l31 -181c8 1 18 2 28 2c58 0 102 -12 133 -35c59 -43 92 -104 98 -184c1 -7 1 -15 1 -22c0 -123 -87 -209 -181 -248c8 -57 17 -110 25 -162 c5 -31 6 -58 6 -80c0 -30 -5 -53 -14 -70c-35 -64 -88 -99 -158 -103c-5 0 -11 -1 -16 -1c-37 0 -72 10 -108 27c-50 24 -77 59 -80 105v11c0 29 7 55 20 76c18 28 45 42 79 44h6c49 0 93 -42 97 -87v-9c0 -51 -34 -86 -105 -106c17 -24 51 -36 102 -36c62 0 116 43 140 85 c9 16 13 41 13 74c0 20 -1 42 -5 67c-8 53 -18 106 -26 159zM461 939c-95 0 -135 -175 -135 -286c0 -24 2 -48 5 -71c50 39 92 82 127 128c40 53 60 100 60 140v8c-4 53 -22 81 -55 81h-2zM406 119l54 -326c73 25 110 78 110 161c0 7 0 15 -1 23c-7 95 -57 142 -151 142h-12 zM382 117c-72 -2 -128 -47 -128 -120v-7c2 -46 43 -99 75 -115c-3 -2 -7 -5 -10 -10c-70 33 -116 88 -123 172v11c0 68 44 126 88 159c23 17 49 29 78 36l-29 170c-21 -13 -52 -37 -92 -73c-50 -44 -86 -84 -109 -119c-45 -69 -67 -130 -67 -182v-13c5 -68 35 -127 93 -176 s125 -73 203 -73c25 0 50 3 75 9c-19 111 -36 221 -54 331z" />
      </g>
      <g id="E084-cgotefc">
         <path transform="scale(1,-1)" d="M20 -78c84 97 114 180 134 329h170c-13 -32 -82 -132 -99 -151l-84 -97c-33 -36 -59 -63 -80 -81h162v102l127 123v-225h57v-39h-57v-34c0 -43 19 -65 57 -65v-34h-244v36c48 0 60 26 60 70v27h-203v39z" />
      </g>
      <g id="E0A4-cgotefc">
         <path transform="scale(1,-1)" d="M0 -39c0 68 73 172 200 172c66 0 114 -37 114 -95c0 -84 -106 -171 -218 -171c-64 0 -96 30 -96 94z" />
      </g>
   </defs>
   <style type="text/css">#cgotefc g.ending, #cgotefc g.fing, #cgotefc g.reh, #cgotefc g.tempo {font-weight:bold;}#cgotefc g.dir, #cgotefc g.dynam, #cgotefc g.mNum {font-style:italic;}#cgotefc g.label {font-weight:normal;}#cgotefc ellipse, #cgotefc path, #cgotefc polygon, #cgotefc polyline, #cgotefc rect {stroke:currentColor}</style>
   <svg class="definition-scale" color="black" font-family="Times, serif" viewBox="0 0 7200 2000">
      <g class="page-margin" transform="translate(100, 100)">
         <g id="m82vfky" class="mdiv pageMilestone" />
         <g id="nnskwsy" class="score pageMilestone" />
         <g id="u15vq2j1" class="system">
            <g id="p1m2klla" class="section systemMilestone" />
            <g id="ogpyfvs" class="section systemMilestone" />
            <g id="c7lo8a7" class="measure">
               <g id="loa75n6" class="staff">
                  <path d="M0 540 L4056 540" stroke-width="13" />
                  <path d="M0 720 L4056 720" stroke-width="13" />
                  <path d="M0 900 L4056 900" stroke-width="13" />
                  <path d="M0 1080 L4056 1080" stroke-width="13" />
                  <path d="M0 1260 L4056 1260" stroke-width="13" />
                  <g id="i9yb839" class="clef">
                     <use xlink:href="#E050-cgotefc" transform="translate(90, 1080) scale(0.72, 0.72)" />
                  </g>
                  <g id="jrgwzdt" class="keySig" />
                  <g id="kyk8m2h" class="meterSig">
                     <use xlink:href="#E084-cgotefc" transform="translate(721, 720) scale(0.72, 0.72)" />
                     <use xlink:href="#E084-cgotefc" transform="translate(721, 1080) scale(0.72, 0.72)" />
                  </g>
                  <g class="ledgerLines below">
                     <path d="M1235 1440 L1557 1440" stroke-width="22" />
                  </g>
                  <g id="m6b3n60" class="layer">
                     <g id="n1vsd137" class="note">
                        <g class="notehead">
                           <use xlink:href="#E0A4-cgotefc" transform="translate(1283, 1440) scale(0.72, 0.72)" />
                        </g>
                        <g id="f1ipaafh" class="stem">
                           <path d="M1500 1412 L1500 810" stroke-width="18" />
                        </g>
                        <g id="ofmbfqo" class="accid" />
                     </g>
                     <g id="p69zdi" class="note">
                        <g class="notehead">
                           <use xlink:href="#E0A4-cgotefc" transform="translate(1973, 1350) scale(0.72, 0.72)" />
                        </g>
                        <g id="g1tnu59e" class="stem">
                           <path d="M2190 1322 L2190 720" stroke-width="18" />
                        </g>
                        <g id="q1bocn2l" class="accid" />
                     </g>
                     <g id="rxkkipt" class="note">
                        <g class="notehead">
                           <use xlink:href="#E0A4-cgotefc" transform="translate(2663, 1260) scale(0.72, 0.72)" />
                        </g>
                        <g id="hnahrsa" class="stem">
                           <path d="M2880 1232 L2880 630" stroke-width="18" />
                        </g>
                        <g id="szuqzvc" class="accid" />
                     </g>
                     <g id="t2v734z" class="note">
                        <g class="notehead">
                           <use xlink:href="#E0A4-cgotefc" transform="translate(3353, 1170) scale(0.72, 0.72)" />
                        </g>
                        <g id="i1fwtdmr" class="stem">
                           <path d="M3570 1142 L3570 540" stroke-width="18" />
                        </g>
                        <g id="u1oyw61j" class="accid" />
                     </g>
                  </g>
               </g>
               <g id="kwfgh44" class="barLine">
                  <path d="M4043 540 L4043 1260" stroke-width="27" />
               </g>
            </g>
            <g id="vnvog9l" class="measure">
               <g id="ettyjh9" class="staff">
                  <path d="M4056 540 L7009 540" stroke-width="13" />
                  <path d="M4056 720 L7009 720" stroke-width="13" />
                  <path d="M4056 900 L7009 900" stroke-width="13" />
                  <path d="M4056 1080 L7009 1080" stroke-width="13" />
                  <path d="M4056 1260 L7009 1260" stroke-width="13" />
                  <g id="f1l54klx" class="layer">
                     <g id="g6ci7jf" class="note">
                        <g class="notehead">
                           <use xlink:href="#E0A4-cgotefc" transform="translate(4236, 1080) scale(0.72, 0.72)" />
                        </g>
                        <g id="jlgh5qx" class="stem">
                           <path d="M4453 1052 L4453 450" stroke-width="18" />
                        </g>
                        <g id="h7bzpys" class="accid" />
                     </g>
                     <g id="ix23ub0" class="note">
                        <g class="notehead">
                           <use xlink:href="#E0A4-cgotefc" transform="translate(4926, 990) scale(0.72, 0.72)" />
                        </g>
                        <g id="kmntyae" class="stem">
                           <path d="M5143 962 L5143 360" stroke-width="18" />
                        </g>
                        <g id="jsnpqm4" class="accid" />
                     </g>
                     <g id="k1h4t6gy" class="note">
                        <g class="notehead">
                           <use xlink:href="#E0A4-cgotefc" transform="translate(5616, 900) scale(0.72, 0.72)" />
                        </g>
                        <g id="lao70ow" class="stem">
                           <path d="M5625 928 L5625 1500" stroke-width="18" />
                        </g>
                        <g id="l1jxjtry" class="accid" />
                     </g>
                     <g id="m1pdjp8o" class="note">
                        <g class="notehead">
                           <use xlink:href="#E0A4-cgotefc" transform="translate(6306, 810) scale(0.72, 0.72)" />
                        </g>
                        <g id="m1ubt75s" class="stem">
                           <path d="M6315 838 L6315 1440" stroke-width="18" />
                        </g>
                        <g id="nbbdjyf" class="accid" />
                     </g>
                  </g>
               </g>
               <g id="dtbc389" class="barLine">
                  <path d="M6996 540 L6996 1260" stroke-width="27" />
               </g>
            </g>
            <g id="x11n3mu3" class="systemMilestoneEnd ogpyfvs" />
            <g id="y15crrn2" class="systemMilestoneEnd p1m2klla" />
         </g>
         <g id="zrkcqdq" class="pageMilestoneEnd nnskwsy" />
         <g id="a1f6df3s" class="pageMilestoneEnd m82vfky" />
      </g>
   </svg>
</svg>
