<svg width="214" height="84" viewBox="0 0 214 84" version="1.1" xmlns="http://www.w3.org/2000/svg" xmlns:xlink="http://www.w3.org/1999/xlink" overflow="visible" id="b11s94o8">
   <desc>Engraved by Verovio 6.2.0-43f8060</desc>
   <defs>
      <g id="E050-b11s94o8">
         <path transform="scale(1,-1)" d="M441 -245c-23 -4 -48 -6 -76 -6c-59 0 -102 7 -130 20c-88 42 -150 93 -187 154c-26 44 -43 103 -48 176c0 6 -1 13 -1 19c0 54 15 111 45 170c29 57 65 106 110 148s96 85 153 127c-3 16 -8 46 -13 92c-4 43 -5 73 -5 89c0 117 16 172 69 257c34 54 64 82 89 82 c21 0 43 -30 69 -92s39 -115 41 -159v-15c0 -109 -21 -162 -67 -241c-13 -20 -63 -90 -98 -118c-13 -9 -25 -19 -37 -29l31 -181c8 1 18 2 28 2c58 0 102 -12 133 -35c59 -43 92 -104 98 -184c1 -7 1 -15 1 -22c0 -123 -87 -209 -181 -248c8 -57 17 -110 25 -162 c5 -31 6 -58 6 -80c0 -30 -5 -53 -14 -70c-35 -64 -88 -99 -158 -103c-5 0 -11 -1 -16 -1c-37 0 -72 10 -108 27c-50 24 -77 59 -80 105v11c0 29 7 55 20 76c18 28 45 42 79 44h6c49 0 93 -42 97 -87v-9c0 -51 -34 -86 -105 -106c17 -24 51 -36 102 -36c62 0 116 43 140 85 c9 16 13 41 13 74c0 20 -1 42 -5 67c-8 53 -18 106 -26 159zM461 939c-95 0 -135 -175 -135 -286c0 -24 2 -48 5 -71c50 39 92 82 127 128c40 53 60 100 60 140v8c-4 53 -22 81 -55 81h-2zM406 119l54 -326c73 25 110 78 110 161c0 7 0 15 -1 23c-7 95 -57 142 -151 142h-12 zM382 117c-72 -2 -128 -47 -128 -120v-7c2 -46 43 -99 75 -115c-3 -2 -7 -5 -10 -10c-70 33 -116 88 -123 172v11c0 68 44 126 88 159c23 17 49 29 78 36l-29 170c-21 -13 -52 -37 -92 -73c-50 -44 -86 -84 -109 -119c-45 -69 -67 -130 -67 -182v-13c5 -68 35 -127 93 -176 s125 -73 203 -73c25 0 50 3 75 9c-19 111 -36 221 -54 331z" />
      </g>
      <g id="E084-b11s94o8">
         <path transform="scale(1,-1)" d="M20 -78c84 97 114 180 134 329h170c-13 -32 -82 -132 -99 -151l-84 -97c-33 -36 -59 -63 -80 -81h162v102l127 123v-225h57v-39h-57v-34c0 -43 19 -65 57 -65v-34h-244v36c48 0 60 26 60 70v27h-203v39z" />
      </g>
      <g id="E0A4-b11s94o8">
         <path transform="scale(1,-1)" d="M0 -39c0 68 73 172 200 172c66 0 114 -37 114 -95c0 -84 -106 -171 -218 -171c-64 0 -96 30 -96 94z" />
      </g>
      <g id="E4A3-b11s94o8">
         <path transform="scale(1,-1)" d="M0 -48c0 26 22 48 48 48s48 -22 48 -48s-22 -48 -48 -48s-48 22 -48 48z" />
      </g>
   </defs>
   <style type="text/css">#b11s94o8 g.ending, #b11s94o8 g.fing, #b11s94o8 g.reh, #b11s94o8 g.tempo {font-weight:bold;}#b11s94o8 g.dir, #b11s94o8 g.dynam, #b11s94o8 g.mNum {font-style:italic;}#b11s94o8 g.label {font-weight:normal;}#b11s94o8 ellipse, #b11s94o8 path, #b11s94o8 polygon, #b11s94o8 polyline, #b11s94o8 rect {stroke:currentColor}</style>
   <svg class="definition-scale" color="black" font-family="Times, serif" viewBox="0 0 5090 2000">
      <g class="page-margin" transform="translate(100, 100)">
         <g id="labt6yy" class="mdiv pageMilestone" />
         <g id="mbp5vhp" class="score pageMilestone" />
         <g id="q5g6xen" class="system">
            <g id="o1cjhilz" class="section systemMilestone" />
            <g id="kwsb9nl" class="section systemMilestone" />
            <g id="bescfcm" class="measure">
               <g id="k1fdrr88" class="staff">
                  <path d="M0 540 L4896 540" stroke-width="13" />
                  <path d="M0 720 L4896 720" stroke-width="13" />
                  <path d="M0 900 L4896 900" stroke-width="13" />
                  <path d="M0 1080 L4896 1080" stroke-width="13" />
                  <path d="M0 1260 L4896 1260" stroke-width="13" />
                  <g id="c1au7jrp" class="clef">
                     <use xlink:href="#E050-b11s94o8" transform="translate(90, 1080) scale(0.72, 0.72)" />
                  </g>
                  <g id="dckjd4i" class="keySig" />
                  <g id="e1e1exuj" class="meterSig">
                     <use xlink:href="#E084-b11s94o8" transform="translate(721, 720) scale(0.72, 0.72)" />
                     <use xlink:href="#E084-b11s94o8" transform="translate(721, 1080) scale(0.72, 0.72)" />
                  </g>
                  <g class="ledgerLines below">
                     <path d="M1235 1440 L1557 1440" stroke-width="22" />
                  </g>
                  <g id="lrnf3tp" class="layer">
                     <g id="m1axtqn8" class="beam">
                        <polygon points="1491,720 2859,540 2859,630 1491,810" />
                        <g id="nufxhiq" class="note">
                           <g class="notehead">
                              <use xlink:href="#E0A4-b11s94o8" transform="translate(1283, 1440) scale(0.72, 0.72)" />
                           </g>
                           <g id="ze4dtsw" class="stem">
                              <path d="M1500 1412 L1500 738" stroke-width="18" />
                           </g>
                           <g id="oq24ycp" class="accid" />
                           <g id="pjoawh5" class="artic">
                              <use xlink:href="#E4A3-b11s94o8" transform="translate(1362, 1563) scale(0.72, 0.72)" />
                           </g>
                        </g>
                        <g id="q17d872j" class="note">
                           <g class="notehead">
                              <use xlink:href="#E0A4-b11s94o8" transform="translate(1733, 1350) scale(0.72, 0.72)" />
                           </g>
                           <g id="a1eq3q7g" class="stem">
                              <path d="M1950 1322 L1950 678" stroke-width="18" />
                           </g>
                           <g id="rbmfguk" class="accid" />
                        </g>
                        <g id="ts9nq3s" class="note">
                           <g class="notehead">
                              <use xlink:href="#E0A4-b11s94o8" transform="translate(2183, 1260) scale(0.72, 0.72)" />
                           </g>
                           <g id="b749evv" class="stem">
                              <path d="M2400 1232 L2400 618" stroke-width="18" />
                           </g>
                           <g id="ul84pjy" class="accid" />
                        </g>
                        <g id="v1og39xu" class="note">
                           <g class="notehead">
                              <use xlink:href="#E0A4-b11s94o8" transform="translate(2633, 1170) scale(0.72, 0.72)" />
                           </g>
                           <g id="c19rt4j8" class="stem">
                              <path d="M2850 1142 L2850 558" stroke-width="18" />
                           </g>
                           <g id="w1lt83cc" class="accid" />
                           <g id="xirgg8w" class="artic">
                              <use xlink:href="#E4A3-b11s94o8" transform="translate(2712, 1316) scale(0.72, 0.72)" />
                           </g>
                        </g>
                     </g>
                     <g id="y4bhkf4" class="beam">
                        <polygon points="3291,450 4659,270 4659,360 3291,540" />
                        <g id="z1pz395l" class="note">
                           <g class="notehead">
                              <use xlink:href="#E0A4-b11s94o8" transform="translate(3083, 1080) scale(0.72, 0.72)" />
                           </g>
                           <g id="dfsrlj" class="stem">
                              <path d="M3300 1052 L3300 468" stroke-width="18" />
                           </g>
                           <g id="a1w84hny" class="accid" />
                           <g id="b6j99w5" class="artic">
                              <use xlink:href="#E4A3-b11s94o8" transform="translate(3162, 1316) scale(0.72, 0.72)" />
                           </g>
                        </g>
                        <g id="c3f14lv" class="note">
                           <g class="notehead">
                              <use xlink:href="#E0A4-b11s94o8" transform="translate(3533, 990) scale(0.72, 0.72)" />
                           </g>
                           <g id="epex47w" class="stem">
                              <path d="M3750 962 L3750 408" stroke-width="18" />
                           </g>
                           <g id="dxvyb4d" class="accid" />
                        </g>
                        <g id="fx2agv3" class="note">
                           <g class="notehead">
                              <use xlink:href="#E0A4-b11s94o8" transform="translate(3983, 900) scale(0.72, 0.72)" />
                           </g>
                           <g id="f856v7v" class="stem">
                              <path d="M4200 872 L4200 348" stroke-width="18" />
                           </g>
                           <g id="g10dcby4" class="accid" />
                        </g>
                        <g id="h13ho5h7" class="note">
                           <g class="notehead">
                              <use xlink:href="#E0A4-b11s94o8" transform="translate(4433, 810) scale(0.72, 0.72)" />
                           </g>
                           <g id="g14qnzl0" class="stem">
                              <path d="M4650 782 L4650 288" stroke-width="18" />
                           </g>
                           <g id="imym3pb" class="accid" />
                           <g id="jzo7fqf" class="artic">
                              <use xlink:href="#E4A3-b11s94o8" transform="translate(4512, 956) scale(0.72, 0.72)" />
                           </g>
                        </g>
                     </g>
                  </g>
               </g>
               <g id="s1dj4ld7" class="slur">
                  <path d="M1846,1552 C1953,1610 2214,1557 2294,1462 C2255,1610 1936,1674 1846,1552" stroke-width="9" stroke-linecap="round" stroke-linejoin="round" />
               </g>
               <g id="e1oyx9r1" class="slur">
                  <path d="M3646,1192 C3753,1250 4014,1197 4094,1102 C4055,1250 3736,1314 3646,1192" stroke-width="9" stroke-linecap="round" stroke-linejoin="round" />
               </g>
               <g id="jsy4vc4" class="barLine">
                  <path d="M4883 540 L4883 1260" stroke-width="27" />
               </g>
            </g>
            <g id="trp5bay" class="systemMilestoneEnd kwsb9nl" />
            <g id="utjg5ih" class="systemMilestoneEnd o1cjhilz" />
         </g>
         <g id="v1k1t83a" class="pageMilestoneEnd mbp5vhp" />
         <g id="w1knfvc7" class="pageMilestoneEnd labt6yy" />
      </g>
   </svg>
</svg>
