<svg width="303" height="116" viewBox="0 0 303 116" version="1.1" xmlns="http://www.w3.org/2000/svg" xmlns:xlink="http://www.w3.org/1999/xlink" overflow="visible" id="y1ycdk93">
   <desc>Engraved by Verovio 6.2.0-43f8060</desc>
   <defs>
      <g id="E050-y1ycdk93">
         <path transform="scale(1,-1)" d="M441 -245c-23 -4 -48 -6 -76 -6c-59 0 -102 7 -130 20c-88 42 -150 93 -187 154c-26 44 -43 103 -48 176c0 6 -1 13 -1 19c0 54 15 111 45 170c29 57 65 106 110 148s96 85 153 127c-3 16 -8 46 -13 92c-4 43 -5 73 -5 89c0 117 16 172 69 257c34 54 64 82 89 82 c21 0 43 -30 69 -92s39 -115 41 -159v-15c0 -109 -21 -162 -67 -241c-13 -20 -63 -90 -98 -118c-13 -9 -25 -19 -37 -29l31 -181c8 1 18 2 28 2c58 0 102 -12 133 -35c59 -43 92 -104 98 -184c1 -7 1 -15 1 -22c0 -123 -87 -209 -181 -248c8 -57 17 -110 25 -162 c5 -31 6 -58 6 -80c0 -30 -5 -53 -14 -70c-35 -64 -88 -99 -158 -103c-5 0 -11 -1 -16 -1c-37 0 -72 10 -108 27c-50 24 -77 59 -80 105v11c0 29 7 55 20 76c18 28 45 42 79 44h6c49 0 93 -42 97 -87v-9c0 -51 -34 -86 -105 -106c17 -24 51 -36 102 -36c62 0 116 43 140 85 c9 16 13 41 13 74c0 20 -1 42 -5 67c-8 53 -18 106 -26 159zM461 939c-95 0 -135 -175 -135 -286c0 -24 2 -48 5 -71c50 39 92 82 127 128c40 53 60 100 60 140v8c-4 53 -22 81 -55 81h-2zM406 119l54 -326c73 25 110 78 110 161c0 7 0 15 -1 23c-7 95 -57 142 -151 142h-12 zM382 117c-72 -2 -128 -47 -128 -120v-7c2 -46 43 -99 75 -115c-3 -2 -7 -5 -10 -10c-70 33 -116 88 -123 172v11c0 68 44 126 88 159c23 17 49 29 78 36l-29 170c-21 -13 -52 -37 -92 -73c-50 -44 -86 -84 -109 -119c-45 -69 -67 -130 -67 -182v-13c5 -68 35 -127 93 -176 s125 -73 203 -73c25 0 50 3 75 9c-19 111 -36 221 -54 331z" />
      </g>
      <g id="E084-y1ycdk93">
         <path transform="scale(1,-1)" d="M20 -78c84 97 114 180 134 329h170c-13 -32 -82 -132 -99 -151l-84 -97c-33 -36 -59 -63 -80 -81h162v102l127 123v-225h57v-39h-57v-34c0 -43 19 -65 57 -65v-34h-244v36c48 0 60 26 60 70v27h-203v39z" />
      </g>
      <g id="E0A4-y1ycdk93">
         <path transform="scale(1,-1)" d="M0 -39c0 68 73 172 200 172c66 0 114 -37 114 -95c0 -84 -106 -171 -218 -171c-64 0 -96 30 -96 94z" />
      </g>
   </defs>
   <style type="text/css">#y1ycdk93 g.ending, #y1ycdk93 g.fing, #y1ycdk93 g.reh, #y1ycdk93 g.tempo {font-weight:bold;}#y1ycdk93 g.dir, #y1ycdk93 g.dynam, #y1ycdk93 g.mNum {font-style:italic;}#y1ycdk93 g.label {font-weight:normal;}#y1ycdk93 ellipse, #y1ycdk93 path, #y1ycdk93 polygon, #y1ycdk93 polyline, #y1ycdk93 rect {stroke:currentColor}</style>
   <svg class="definition-scale" color="black" font-family="Times, serif" viewBox="0 0 7200 2760">
      <g class="page-margin" transform="translate(100, 100)">
         <g id="icfrd00" class="mdiv pageMilestone" />
         <g id="jubikaa" class="score pageMilestone" />
         <g id="opxbkt8" class="system">
            <g id="l1ok9mqs" class="section systemMilestone" />
            <g id="iogyz7t" class="section systemMilestone" />
            <g id="y11p0x8a" class="measure">
               <g id="h1mjky9o" class="staff">
                  <path d="M0 540 L4056 540" stroke-width="13" />
                  <path d="M0 720 L4056 720" stroke-width="13" />
                  <path d="M0 900 L4056 900" stroke-width="13" />
                  <path d="M0 1080 L4056 1080" stroke-width="13" />
                  <path d="M0 1260 L4056 1260" stroke-width="13" />
                  <g id="cubgigu" class="clef">
                     <use xlink:href="#E050-y1ycdk93" transform="translate(90, 1080) scale(0.72, 0.72)" />
                  </g>
                  <g id="d1hqp9wh" class="keySig" />
                  <g id="elzk5zb" class="meterSig">
                     <use xlink:href="#E084-y1ycdk93" transform="translate(721, 720) scale(0.72, 0.72)" />
                     <use xlink:href="#E084-y1ycdk93" transform="translate(721, 1080) scale(0.72, 0.72)" />
                  </g>
                  <g class="ledgerLines below">
                     <path d="M1235 1440 L1557 1440" stroke-width="22" />
                     <path d="M1925 1440 L2247 1440" stroke-width="22" />
                     <path d="M1235 1620 L1557 1620" stroke-width="22" />
                     <path d="M1235 1800 L1557 1800" stroke-width="22" />
                     <path d="M1235 1980 L1557 1980" stroke-width="22" />
                  </g>
                  <g id="ijoipuh" class="layer">
                     <g id="j1s97r01" class="note">
                        <g class="notehead">
                           <use xlink:href="#E0A4-y1ycdk93" transform="translate(1283, 2070) scale(0.72, 0.72)" />
                        </g>
                        <g id="z13qlrer" class="stem">
                           <path d="M1500 2042 L1500 900" stroke-width="18" />
                        </g>
                        <g id="k163mord" class="accid" />
                        <g id="lxbhjpm" class="verse">
                           <g id="mjt412c" class="syl">
                              <text x="1193" y="2477" font-size="0px">
                                 <tspan id="n1wz5cwg" class="text">
                                    <tspan font-size="405px">1</tspan>
                                 </tspan>
                              </text>
                           </g>
                        </g>
                     </g>
                     <g id="ohhjejl" class="note">
                        <g class="notehead">
                           <use xlink:href="#E0A4-y1ycdk93" transform="translate(1973, 1440) scale(0.72, 0.72)" />
                        </g>
                        <g id="a1ns7xs3" class="stem">
                           <path d="M2190 1412 L2190 810" stroke-width="18" />
                        </g>
                        <g id="p1v7l1s3" class="accid" />
                        <g id="q6ws15h" class="verse">
                           <g id="r7hm2lz" class="syl">
                              <text x="1883" y="2477" font-size="0px">
                                 <tspan id="sl5thjt" class="text">
                                    <tspan font-size="405px">2</tspan>
                                 </tspan>
                              </text>
                           </g>
                        </g>
                     </g>
                     <g id="t18bufh7" class="note">
                        <g class="notehead">
                           <use xlink:href="#E0A4-y1ycdk93" transform="translate(2663, 1080) scale(0.72, 0.72)" />
                        </g>
                        <g id="byc46wb" class="stem">
                           <path d="M2880 1052 L2880 450" stroke-width="18" />
                        </g>
                        <g id="uav9dvo" class="accid" />
                        <g id="v1lw11a6" class="verse">
                           <g id="wlhrhik" class="syl">
                              <text x="2573" y="2477" font-size="0px">
                                 <tspan id="x1n0e9l8" class="text">
                                    <tspan font-size="405px">3</tspan>
                                 </tspan>
                              </text>
                           </g>
                        </g>
                     </g>
                     <g id="y1m87pvm" class="note">
                        <g class="notehead">
                           <use xlink:href="#E0A4-y1ycdk93" transform="translate(3353, 810) scale(0.72, 0.72)" />
                        </g>
                        <g id="c1cw23n4" class="stem">
                           <path d="M3362 838 L3362 1440" stroke-width="18" />
                        </g>
                        <g id="z17v2ue9" class="accid" />
                        <g id="a17nbkn3" class="verse">
                           <g id="bquj0zk" class="syl">
                              <text x="3263" y="2477" font-size="0px">
                                 <tspan id="c2pag0y" class="text">
                                    <tspan font-size="405px">4</tspan>
                                 </tspan>
                              </text>
                           </g>
                        </g>
                     </g>
                  </g>
               </g>
               <g id="glpt3xk" class="barLine">
                  <path d="M4043 540 L4043 1260" stroke-width="27" />
               </g>
            </g>
            <g id="dqatmmv" class="measure">
               <g id="m1k7f21c" class="staff">
                  <path d="M4056 540 L7009 540" stroke-width="13" />
                  <path d="M4056 720 L7009 720" stroke-width="13" />
                  <path d="M4056 900 L7009 900" stroke-width="13" />
                  <path d="M4056 1080 L7009 1080" stroke-width="13" />
                  <path d="M4056 1260 L7009 1260" stroke-width="13" />
                  <g class="ledgerLines above">
                     <path d="M5568 360 L5890 360" stroke-width="22" />
                     <path d="M6258 360 L6580 360" stroke-width="22" />
                     <path d="M6258 180 L6580 180" stroke-width="22" />
                  </g>
                  <g id="n1h8tv44" class="layer">
                     <g id="o13j841a" class="note">
                        <g class="notehead">
                           <use xlink:href="#E0A4-y1ycdk93" transform="translate(4236, 630) scale(0.72, 0.72)" />
                        </g>
                        <g id="d13bfnhk" class="stem">
                           <path d="M4245 658 L4245 1260" stroke-width="18" />
                        </g>
                        <g id="p1h2kgh2" class="accid" />
                        <g id="q1lntp5x" class="verse">
                           <g id="r1jcxqlh" class="syl">
                              <text x="4146" y="2477" font-size="0px">
                                 <tspan id="s9haeb7" class="text">
                                    <tspan font-size="405px">5</tspan>
                                 </tspan>
                              </text>
                           </g>
                        </g>
                     </g>
                     <g id="t1nawj8k" class="note">
                        <g class="notehead">
                           <use xlink:href="#E0A4-y1ycdk93" transform="translate(4926, 450) scale(0.72, 0.72)" />
                        </g>
                        <g id="etice6" class="stem">
                           <path d="M4935 478 L4935 1080" stroke-width="18" />
                        </g>
                        <g id="u2fg6a9" class="accid" />
                        <g id="v1cl6zzu" class="verse">
                           <g id="w1laplk1" class="syl">
                              <text x="4836" y="2477" font-size="0px">
                                 <tspan id="xjj2x2z" class="text">
                                    <tspan font-size="405px">6</tspan>
                                 </tspan>
                              </text>
                           </g>
                        </g>
                     </g>
                     <g id="yyo506j" class="note">
                        <g class="notehead">
                           <use xlink:href="#E0A4-y1ycdk93" transform="translate(5616, 270) scale(0.72, 0.72)" />
                        </g>
                        <g id="f92jk1i" class="stem">
                           <path d="M5625 298 L5625 900" stroke-width="18" />
                        </g>
                        <g id="z7l1mnz" class="accid" />
                        <g id="a1d0w3ow" class="verse">
                           <g id="bud60zs" class="syl">
                              <text x="5526" y="2477" font-size="0px">
                                 <tspan id="cdvawm3" class="text">
                                    <tspan font-size="405px">7</tspan>
                                 </tspan>
                              </text>
                           </g>
                        </g>
                     </g>
                     <g id="dowsyxs" class="note">
                        <g class="notehead">
                           <use xlink:href="#E0A4-y1ycdk93" transform="translate(6306, 180) scale(0.72, 0.72)" />
                        </g>
                        <g id="gb013vd" class="stem">
                           <path d="M6315 208 L6315 900" stroke-width="18" />
                        </g>
                        <g id="e1dv336p" class="accid" />
                        <g id="f1rpqqgn" class="verse">
                           <g id="gggismr" class="syl">
                              <text x="6216" y="2477" font-size="0px">
                                 <tspan id="hsdx49d" class="text">
                                    <tspan font-size="405px">8</tspan>
                                 </tspan>
                              </text>
                           </g>
                        </g>
                     </g>
                  </g>
               </g>
               <g id="la6r381" class="barLine">
                  <path d="M6996 540 L6996 1260" stroke-width="27" />
               </g>
            </g>
            <g id="rnmznv7" class="systemMilestoneEnd iogyz7t" />
            <g id="s1je8ylv" class="systemMilestoneEnd l1ok9mqs" />
         </g>
         <g id="ttepewr" class="pageMilestoneEnd jubikaa" />
         <g id="uphttp7" class="pageMilestoneEnd icfrd00" />
      </g>
   </svg>
</svg>
